<svg width="77" height="42" viewBox="0 0 77 42" fill="none" xmlns="http://www.w3.org/2000/svg">
    <g clip-path="url(#clip0_745_3428)">
        <path d="M74.2924 34.6196C74.1987 34.4707 74.0413 34.3934 73.8502 34.401C64.3669 34.8137 54.7843 35.4036 45.3685 36.1575C35.9789 36.9095 26.4712 37.8443 17.1116 38.9374C11.9361 39.5424 6.63143 40.2171 1.34357 40.9427C1.22364 40.9597 1.11496 41.0313 1.04001 41.1444C0.950068 41.2801 0.91634 41.4629 0.95569 41.6099C1.0194 41.853 1.22552 41.9981 1.49534 41.9981C1.53095 41.9981 1.56655 41.9962 1.60402 41.9906C10.9355 40.709 20.4282 39.582 29.8178 38.6415C39.1418 37.7067 48.612 36.9302 57.966 36.3328C63.2145 35.9973 68.5605 35.7108 73.8577 35.4809C74.0563 35.4715 74.2212 35.3697 74.3093 35.1982C74.403 35.0173 74.3955 34.7836 74.2924 34.6177V34.6196Z" fill="#1D1D1B"/>
    <mask id="path-2-inside-1_745_3428" fill="white">
        <path d="M77.8342 24.6742C77.7218 24.5102 77.5737 24.4273 77.3939 24.4292C77.2889 24.4292 77.184 24.4612 77.0791 24.5253C76.5075 24.7156 75.9604 24.9437 75.4357 25.2132C74.9092 25.4808 74.3808 25.7409 73.8486 25.9935C73.3165 26.246 72.7749 26.4627 72.2278 26.6456C71.6788 26.8284 71.1054 26.9188 70.5039 26.9207C69.6476 26.9245 68.9168 26.6606 68.3247 26.1178C66.7319 24.6553 66.4902 22.4371 66.2841 21.4193C66.078 20.4016 65.7313 14.8531 65.7313 14.8531C66.108 14.8984 67.4646 14.9285 67.8843 14.9361C69.3909 14.9587 72.1079 14.6289 72.3327 14.5817C72.5576 14.5346 72.745 14.4555 72.8949 14.3443C73.0448 14.235 73.2003 13.9937 73.2003 13.7581C73.2003 13.5546 73.1534 13.351 73.0391 13.1795C72.9267 13.008 72.7543 12.8516 72.462 12.9119C72.462 12.9119 69.0461 13.3435 66.4696 13.2474C66.2597 13.2399 65.7988 13.2568 65.5421 13.2267L65.4746 7.17874C65.4746 6.86588 65.3884 6.49271 65.2085 6.34383C65.0268 6.19494 64.8169 6.09316 64.607 6.09505C64.4272 6.09505 64.1011 6.03662 63.895 6.63972C63.6271 7.42374 63.8032 13.0589 63.8032 13.0589C63.5315 13.0137 63.5296 13.0212 63.2504 12.9911C62.9712 12.9609 62.6827 12.9458 62.3828 12.9477C62.158 12.9477 61.9931 13.0344 61.8882 13.2078C61.7832 13.3812 61.7308 13.5697 61.7326 13.7713C61.7326 14.0371 61.817 14.2331 61.9819 14.3575C62.1486 14.4819 62.351 14.5648 62.5908 14.6025C62.8307 14.6402 63.0874 14.6628 63.3572 14.6703C63.6271 14.6779 63.657 14.6666 63.8688 14.6967C63.8706 15.2772 63.925 16.2082 63.9175 16.5211C63.91 16.8339 64.6352 22.2524 64.8075 23.1777C64.8431 23.3719 64.8769 23.5415 64.9106 23.6998C64.9368 24.9682 64.7551 27.2769 62.8588 28.7375C62.3266 29.1484 60.9307 29.7345 59.4841 28.7488C57.5054 27.4013 57.3967 25.0304 57.2917 24.3255C57.6815 23.2758 57.897 22.5841 58.2043 21.6135C58.5116 20.6429 59.6752 17.1392 59.9057 14.7514C60.0949 12.8045 60.1174 10.6673 59.8588 8.45843C59.8008 7.96088 59.7164 6.39283 58.9613 5.2281C58.3954 4.35549 57.2411 4.37245 57.1662 4.37245C56.8195 4.37245 56.5122 4.51381 56.2424 4.79462C55.9726 5.07732 55.7384 5.42976 55.5435 5.85192C55.3486 6.27409 55.1912 6.73395 55.0694 7.22585C54.9495 7.71964 54.867 8.17008 54.8221 8.57717C54.7022 9.56474 54.6178 10.4845 54.5729 11.3382C54.5279 12.192 54.5054 13.0269 54.5054 13.8411C54.5054 14.8437 54.5391 15.967 54.6066 17.2127C54.674 18.4585 54.8052 19.7891 55.002 21.2064C55.1219 22.0714 55.2737 22.961 55.4517 23.8694C55.2081 24.3594 54.8877 25.1416 54.4661 25.3772C53.5254 25.903 52.7928 25.903 52.1894 25.2132C51.4811 24.4028 51.2918 23.1796 51.1869 22.5143C51.1101 22.0356 50.7016 20.4996 50.5067 19.8343C50.3118 19.169 49.6729 16.3515 47.4075 16.065C46.227 15.9161 44.282 16.5852 43.4331 17.7951C42.871 18.6206 42.4681 19.1125 42.3351 21.1442C42.2114 23.0402 43.0378 24.8966 43.3994 25.5317C42.4381 25.4563 41.4094 24.1239 41.1115 22.0262C41.044 21.5456 40.8229 20.7899 40.6281 20.1227C40.4332 19.4574 40.0003 16.4777 37.7349 16.1931C36.5544 16.0442 34.6094 16.7133 33.7606 17.9233C33.1984 18.7469 32.7956 19.2407 32.6625 21.2723C32.5726 22.65 32.8387 23.8242 33.0673 24.465C32.8087 24.8023 32.5426 25.1378 32.2597 25.4714C31.8081 26.0048 31.349 26.4665 30.8843 26.8585C30.4177 27.2505 29.9605 27.4465 29.5089 27.4465C29.1173 27.4465 28.7463 27.3523 28.3922 27.1638C28.038 26.9754 27.7007 26.7379 27.3766 26.4477C27.0524 26.1574 26.7413 25.8295 26.4415 25.4601C26.1398 25.0926 25.8363 24.7326 25.529 24.3802C25.2217 24.0277 24.9013 23.6998 24.5715 23.3926C24.2398 23.0873 23.895 22.8479 23.5334 22.6764C24.1349 22.0507 24.6877 21.4438 25.1917 20.8558C25.6958 20.2678 26.2129 19.6968 26.747 19.1408C27.2791 18.5848 27.86 18.0514 28.4821 17.5426C29.1061 17.0337 29.8387 16.5437 30.6819 16.0744C30.9368 15.95 31.0642 15.754 31.0642 15.4864C31.0642 15.2979 30.993 15.1302 30.8506 14.9813C30.7082 14.8324 30.5152 14.7589 30.2753 14.7589C30.1554 14.7589 30.028 14.7834 29.8931 14.8305C29.0517 15.2696 28.3172 15.7427 27.6951 16.2516C27.0711 16.7604 26.4959 17.29 25.9693 17.8385C25.4428 18.3869 24.9387 18.9504 24.459 19.5309C23.9775 20.1114 23.4509 20.69 22.8813 21.2705C22.9563 19.8928 23.02 18.4717 23.0724 17.0054C23.1249 15.541 23.1511 13.9165 23.1511 12.1298C23.1511 11.0499 23.1399 10.0623 23.1174 9.16895C23.0949 8.27562 23.0724 7.39924 23.05 6.53795C23.0275 5.67665 23.0087 4.78331 22.9937 3.85982C22.9787 2.93633 22.9713 1.90918 22.9713 0.782147C22.9713 0.516408 22.8963 0.320402 22.7464 0.194129C22.5965 0.06974 22.4372 0.00566101 22.2723 0.00566101C22.1074 0.00566101 21.9538 0.0678553 21.8095 0.194129C21.6671 0.320402 21.5959 0.514523 21.5959 0.782147C21.5959 1.90918 21.6034 2.93633 21.6184 3.85982C21.6334 4.7852 21.6521 5.67665 21.6746 6.53795C21.6971 7.39924 21.7196 8.2775 21.742 9.16895C21.7645 10.0623 21.7758 11.048 21.7758 12.1298C21.7758 13.8524 21.7533 15.4317 21.7083 16.8641C21.6633 18.2983 21.6034 19.6798 21.5284 21.0104L21.4404 22.6048C21.3242 22.6029 21.1986 22.601 21.0544 22.5973C20.7396 22.5897 20.318 22.5784 19.7914 22.5615C19.5366 22.5615 19.2724 22.569 19.0025 22.586C18.7327 22.601 18.4535 22.6331 18.1687 22.6802C17.9738 21.8811 17.6647 21.1687 17.2449 20.543C17.065 20.2772 16.8514 20.0153 16.6022 19.7552C16.353 19.497 16.0682 19.2689 15.7459 19.0748C15.4217 18.8788 15.0582 18.7186 14.6516 18.5923C14.245 18.4679 13.7859 18.4039 13.2762 18.4039C12.6897 18.4039 12.1932 18.5716 11.7884 18.909C11.3818 19.2463 11.0483 19.6836 10.7841 20.2245C10.5199 20.7654 10.3325 21.3798 10.2201 22.0696C10.1076 22.7593 10.0514 23.4473 10.0514 24.137C10.0514 24.4424 10.0645 24.7383 10.0851 25.0285C10.0739 25.0681 10.0627 25.1058 10.0514 25.1491C9.65042 26.8171 8.77161 28.2381 7.9209 28.9976C7.23509 29.6101 6.22137 29.7572 5.34818 29.1164C3.66176 27.8781 3.71985 25.1491 3.58118 24.2087C3.97093 23.1589 4.32134 22.1487 4.63051 21.1781C4.93781 20.2075 5.20202 19.2444 5.41938 18.2889C5.63674 17.3334 5.80164 16.359 5.91594 15.3639C6.02837 14.3688 6.08458 13.3152 6.08458 12.2033C6.08458 11.7811 6.08083 11.3495 6.07334 10.9104C6.06584 10.4713 6.0471 10.0265 6.01712 9.57039C5.97215 9.02195 5.93842 8.49801 5.91594 7.99669C5.89345 7.49536 5.83349 7.02608 5.73605 6.58695C5.63862 6.14782 5.48122 5.75204 5.26198 5.3996C5.04275 5.04717 4.70921 4.74562 4.25763 4.49496C4.1377 4.44784 4.02902 4.40826 3.93159 4.37811C3.83415 4.34607 3.74795 4.33099 3.673 4.33099C3.32635 4.33099 3.01905 4.47234 2.74922 4.75316C2.47939 5.03586 2.24517 5.38829 2.05029 5.81046C1.85542 6.23263 1.69802 6.69249 1.57622 7.18439C1.4563 7.67818 1.37385 8.12861 1.32888 8.5357C1.20896 9.52327 1.12463 10.443 1.07966 11.2968C1.03469 12.1505 1.01221 12.9854 1.01221 13.7996C1.01221 14.8022 1.04594 15.9255 1.11339 17.1713C1.18085 18.4171 1.31201 19.7476 1.50876 21.1649C1.70364 22.5822 1.81045 24.2784 2.16272 25.8144C2.51499 27.3504 3.38069 30.5694 5.78665 30.9313C7.177 31.1405 8.52989 30.4639 9.04518 29.9701C9.90525 29.1465 10.3924 28.4718 10.6997 27.8857C10.8178 28.1684 10.949 28.4379 11.1007 28.6829C11.4549 29.2539 11.8859 29.7044 12.3974 30.0342C12.9071 30.364 13.5029 30.528 14.1775 30.528C14.8521 30.528 15.4554 30.3357 15.982 29.9532C16.5085 29.5687 16.9507 29.0919 17.3124 28.5208C17.674 27.9497 17.9513 27.3259 18.1462 26.6531C18.3411 25.9803 18.4404 25.3527 18.4404 24.7741V24.4574C18.4404 24.3557 18.4329 24.2501 18.4179 24.1408C18.7027 24.1088 18.9707 24.0862 19.218 24.0711C19.4672 24.056 19.7108 24.0466 19.9507 24.0466C20.4323 24.0466 20.8745 24.0504 21.2811 24.0579C21.3129 24.0579 21.3429 24.0598 21.3748 24.0617C21.3092 25.2207 21.2586 26.4005 21.223 27.6067C21.1855 28.9298 21.1668 30.3904 21.1668 31.9886C21.1668 32.1771 21.1743 32.4617 21.1893 32.8461C21.2043 33.2306 21.2417 33.6094 21.3017 33.9864C21.3617 34.3633 21.4553 34.695 21.5828 34.9852C21.7121 35.2755 21.8882 35.4206 22.1131 35.4206C22.2779 35.4206 22.4316 35.3584 22.5759 35.2321C22.7183 35.1059 22.7914 34.9268 22.7914 34.6912C22.7914 34.597 22.7839 34.5273 22.7689 34.4801C22.649 34.0731 22.5815 33.6886 22.5646 33.3286C22.5496 32.9686 22.5422 32.522 22.5422 31.9886C22.5422 30.4696 22.5609 29.0711 22.5984 27.7952C22.6358 26.5193 22.6846 25.2773 22.7445 24.0711C23.1343 24.1974 23.4959 24.4047 23.8276 24.693C24.1574 24.9833 24.4778 25.3074 24.7851 25.6674C25.0924 26.0274 25.4053 26.4005 25.7201 26.7831C26.0349 27.1676 26.3778 27.5144 26.747 27.8291C27.1142 28.142 27.5246 28.4002 27.9762 28.6037C28.4278 28.8073 28.9374 28.909 29.5089 28.909C30.0804 28.909 30.622 28.7338 31.1785 28.3813C31.735 28.0289 32.2578 27.6067 32.745 27.113C33.1385 26.7134 33.502 26.2931 33.8487 25.8596C33.8487 25.8615 33.8524 25.8634 33.8524 25.8653C34.0773 26.1555 35.1903 27.2449 36.7362 27.177C38.3832 27.1054 38.8779 26.5871 39.0728 26.4477C39.2677 26.3063 40.0284 25.6599 40.3133 24.9116C40.4032 25.1152 40.7648 25.4921 40.9597 25.7673C41.951 27.1751 43.5081 27.3335 44.7317 26.8189C44.7898 26.7944 44.8404 26.7699 44.8928 26.7454C45.3238 26.9396 45.8372 27.0753 46.4106 27.0489C48.0577 26.9773 48.5523 26.459 48.7472 26.3195C48.9421 26.1782 49.7029 25.5317 49.9877 24.7835C50.9377 27.5125 53.8065 27.1469 54.0313 27.1469C54.0088 27.1563 55.4517 26.9132 55.9613 26.1612C56.3548 27.6143 57.0987 29.3463 58.6596 30.364C59.5946 30.9728 60.9625 31.1518 61.6802 30.9992C63.5708 30.6015 64.5733 29.3651 65.0699 28.6169C65.7032 27.6614 66.0349 26.8208 66.1867 26.0971C66.6701 26.7888 67.2622 27.3711 67.9836 27.8329C68.3303 28.0986 68.7032 28.2814 69.1023 28.3813C69.5014 28.4831 69.9174 28.5321 70.354 28.5302C71.0154 28.5283 71.6507 28.4322 72.2578 28.2419C72.8649 28.0515 73.4626 27.8197 74.0472 27.5427C74.6337 27.2675 75.2146 26.9829 75.7918 26.6908C76.3689 26.3987 76.9516 26.1423 77.5363 25.9218C77.8511 25.8106 78.0085 25.5826 78.0066 25.2377C78.0066 25.0342 77.9485 24.8495 77.8361 24.6855L77.8342 24.6742ZM2.61805 17.339C2.50562 16.1799 2.44941 15.0133 2.44941 13.8392C2.44941 13.0401 2.47564 12.2221 2.52811 11.3834C2.58058 10.5467 2.66677 9.64201 2.78669 8.66952V8.57528C2.78669 8.43393 2.81667 8.23415 2.87664 7.97595C2.9366 7.71775 3.0153 7.45955 3.11274 7.20135C3.21017 6.94315 3.3226 6.71511 3.45189 6.52098C3.57931 6.32498 3.70298 6.22698 3.8229 6.22698C3.94283 6.22698 4.05526 6.32121 4.16019 6.50968C4.26512 6.69814 4.35881 7.01854 4.44313 7.47275C4.52558 7.92695 4.58929 8.53759 4.63426 9.30465C4.67923 10.0717 4.70172 11.0272 4.70172 12.1712C4.70172 13.8467 4.55931 15.394 4.27262 16.8113C3.9878 18.2286 3.59618 19.6741 3.09962 21.1461C2.88975 19.7684 2.72861 18.5 2.6143 17.339H2.61805ZM11.616 25.0398C11.7041 24.6308 11.7622 24.269 11.9196 23.5641C11.9646 23.4548 11.987 23.3681 11.987 23.3059C11.987 23.1344 11.9233 22.9968 11.7959 22.895C11.7041 22.8215 11.6029 22.7839 11.498 22.7631C11.5074 22.6632 11.513 22.5577 11.5242 22.4597C11.5767 22.0206 11.6816 21.638 11.839 21.3081C11.9964 20.9783 12.2156 20.7126 12.493 20.509C12.7703 20.3055 13.1357 20.1792 13.5873 20.1321L13.8571 20.1095C14.2637 20.1095 14.6235 20.1962 14.9402 20.3677C15.2549 20.5411 15.5341 20.7597 15.774 21.0254C16.0138 21.2912 16.2181 21.5927 16.383 21.9301C16.5479 22.2674 16.6828 22.5992 16.7896 22.929C15.9932 23.1024 15.2343 23.3059 14.5129 23.5396C13.7915 23.7752 13.1675 24.0259 12.641 24.2916C12.2269 24.5291 11.8877 24.7778 11.6179 25.0379L11.616 25.0398ZM17.0819 24.8325C17.0819 25.2547 17.0144 25.7221 16.8795 26.2309C16.7446 26.7398 16.5535 27.2185 16.3043 27.6633C16.0569 28.1099 15.744 28.485 15.3693 28.7903C14.9926 29.0956 14.5729 29.2483 14.1063 29.2483C13.8365 29.2483 13.576 29.1786 13.3287 29.0372C13.0813 28.8959 12.8584 28.7206 12.6635 28.5095C12.4686 28.2984 12.3093 28.0666 12.1894 27.8159C12.0695 27.5653 12.0095 27.3297 12.0095 27.1111C12.0095 26.9867 12.017 26.8924 12.032 26.8284C12.107 26.5306 12.3 26.2573 12.6073 26.0066C12.9146 25.756 13.3025 25.5298 13.769 25.3263C14.2356 25.1227 14.7528 24.9418 15.3243 24.7854C15.8958 24.6289 16.4748 24.4876 17.0613 24.3632C17.0763 24.4424 17.0838 24.5196 17.0838 24.5988V24.8344L17.0819 24.8325ZM38.0984 25.1246C37.8155 25.2867 36.7718 26.0443 35.6775 25.3131C34.2384 24.35 34.0791 21.67 34.3902 20.4299C34.6244 19.4989 35.1828 18.4001 36.4457 17.7461C38.194 16.8434 39.1178 19.5366 39.3932 20.5562C39.0897 20.2188 38.6568 20.004 38.1696 20.004C37.2552 20.004 36.5132 20.7503 36.5132 21.67C36.5132 22.5897 37.2552 23.3361 38.1696 23.3361C38.773 23.3361 39.2958 23.0081 39.5843 22.5238C39.5694 22.6595 39.5525 22.7744 39.5394 22.8705C39.3876 23.9523 38.9192 24.6572 38.0984 25.1265V25.1246ZM47.771 24.9946C47.5705 25.1095 46.9859 25.5223 46.2719 25.4921C46.0752 25.4846 45.8691 25.4394 45.6573 25.347C45.6405 25.3282 45.618 25.3206 45.5955 25.3206C45.5149 25.281 45.4325 25.2377 45.3519 25.183C43.9128 24.22 43.7536 21.54 44.0646 20.2998C44.2988 19.3688 44.8572 18.2701 46.1202 17.6161C47.6398 16.8302 48.5374 18.7676 48.9252 19.9568C48.7285 19.8796 48.5167 19.8343 48.2938 19.8343C47.3269 19.8343 46.5418 20.6221 46.5418 21.5965C46.5418 22.5709 47.325 23.3587 48.2938 23.3587C48.6029 23.3587 48.8878 23.272 49.1407 23.1306C48.9384 23.9957 48.4905 24.5875 47.7728 24.9983L47.771 24.9946ZM56.1169 17.3843C56.0044 16.2252 55.9745 12.2674 56.0269 11.4287C56.0794 10.5919 56.2537 8.39812 56.6453 7.43128C56.7839 7.09016 56.902 6.45125 57.3873 6.45125C58.4685 6.45125 58.4985 11.0894 58.4516 12.4916C58.3973 14.1671 58.0581 15.4393 57.7733 16.8565C57.4885 18.2738 57.0969 19.7194 56.6003 21.1913C56.3904 19.8136 56.2293 18.5452 56.115 17.3843H56.1169Z"/>
    </mask>
        <path d="M77.8342 24.6742C77.7218 24.5102 77.5737 24.4273 77.3939 24.4292C77.2889 24.4292 77.184 24.4612 77.0791 24.5253C76.5075 24.7156 75.9604 24.9437 75.4357 25.2132C74.9092 25.4808 74.3808 25.7409 73.8486 25.9935C73.3165 26.246 72.7749 26.4627 72.2278 26.6456C71.6788 26.8284 71.1054 26.9188 70.5039 26.9207C69.6476 26.9245 68.9168 26.6606 68.3247 26.1178C66.7319 24.6553 66.4902 22.4371 66.2841 21.4193C66.078 20.4016 65.7313 14.8531 65.7313 14.8531C66.108 14.8984 67.4646 14.9285 67.8843 14.9361C69.3909 14.9587 72.1079 14.6289 72.3327 14.5817C72.5576 14.5346 72.745 14.4555 72.8949 14.3443C73.0448 14.235 73.2003 13.9937 73.2003 13.7581C73.2003 13.5546 73.1534 13.351 73.0391 13.1795C72.9267 13.008 72.7543 12.8516 72.462 12.9119C72.462 12.9119 69.0461 13.3435 66.4696 13.2474C66.2597 13.2399 65.7988 13.2568 65.5421 13.2267L65.4746 7.17874C65.4746 6.86588 65.3884 6.49271 65.2085 6.34383C65.0268 6.19494 64.8169 6.09316 64.607 6.09505C64.4272 6.09505 64.1011 6.03662 63.895 6.63972C63.6271 7.42374 63.8032 13.0589 63.8032 13.0589C63.5315 13.0137 63.5296 13.0212 63.2504 12.9911C62.9712 12.9609 62.6827 12.9458 62.3828 12.9477C62.158 12.9477 61.9931 13.0344 61.8882 13.2078C61.7832 13.3812 61.7308 13.5697 61.7326 13.7713C61.7326 14.0371 61.817 14.2331 61.9819 14.3575C62.1486 14.4819 62.351 14.5648 62.5908 14.6025C62.8307 14.6402 63.0874 14.6628 63.3572 14.6703C63.6271 14.6779 63.657 14.6666 63.8688 14.6967C63.8706 15.2772 63.925 16.2082 63.9175 16.5211C63.91 16.8339 64.6352 22.2524 64.8075 23.1777C64.8431 23.3719 64.8769 23.5415 64.9106 23.6998C64.9368 24.9682 64.7551 27.2769 62.8588 28.7375C62.3266 29.1484 60.9307 29.7345 59.4841 28.7488C57.5054 27.4013 57.3967 25.0304 57.2917 24.3255C57.6815 23.2758 57.897 22.5841 58.2043 21.6135C58.5116 20.6429 59.6752 17.1392 59.9057 14.7514C60.0949 12.8045 60.1174 10.6673 59.8588 8.45843C59.8008 7.96088 59.7164 6.39283 58.9613 5.2281C58.3954 4.35549 57.2411 4.37245 57.1662 4.37245C56.8195 4.37245 56.5122 4.51381 56.2424 4.79462C55.9726 5.07732 55.7384 5.42976 55.5435 5.85192C55.3486 6.27409 55.1912 6.73395 55.0694 7.22585C54.9495 7.71964 54.867 8.17008 54.8221 8.57717C54.7022 9.56474 54.6178 10.4845 54.5729 11.3382C54.5279 12.192 54.5054 13.0269 54.5054 13.8411C54.5054 14.8437 54.5391 15.967 54.6066 17.2127C54.674 18.4585 54.8052 19.7891 55.002 21.2064C55.1219 22.0714 55.2737 22.961 55.4517 23.8694C55.2081 24.3594 54.8877 25.1416 54.4661 25.3772C53.5254 25.903 52.7928 25.903 52.1894 25.2132C51.4811 24.4028 51.2918 23.1796 51.1869 22.5143C51.1101 22.0356 50.7016 20.4996 50.5067 19.8343C50.3118 19.169 49.6729 16.3515 47.4075 16.065C46.227 15.9161 44.282 16.5852 43.4331 17.7951C42.871 18.6206 42.4681 19.1125 42.3351 21.1442C42.2114 23.0402 43.0378 24.8966 43.3994 25.5317C42.4381 25.4563 41.4094 24.1239 41.1115 22.0262C41.044 21.5456 40.8229 20.7899 40.6281 20.1227C40.4332 19.4574 40.0003 16.4777 37.7349 16.1931C36.5544 16.0442 34.6094 16.7133 33.7606 17.9233C33.1984 18.7469 32.7956 19.2407 32.6625 21.2723C32.5726 22.65 32.8387 23.8242 33.0673 24.465C32.8087 24.8023 32.5426 25.1378 32.2597 25.4714C31.8081 26.0048 31.349 26.4665 30.8843 26.8585C30.4177 27.2505 29.9605 27.4465 29.5089 27.4465C29.1173 27.4465 28.7463 27.3523 28.3922 27.1638C28.038 26.9754 27.7007 26.7379 27.3766 26.4477C27.0524 26.1574 26.7413 25.8295 26.4415 25.4601C26.1398 25.0926 25.8363 24.7326 25.529 24.3802C25.2217 24.0277 24.9013 23.6998 24.5715 23.3926C24.2398 23.0873 23.895 22.8479 23.5334 22.6764C24.1349 22.0507 24.6877 21.4438 25.1917 20.8558C25.6958 20.2678 26.2129 19.6968 26.747 19.1408C27.2791 18.5848 27.86 18.0514 28.4821 17.5426C29.1061 17.0337 29.8387 16.5437 30.6819 16.0744C30.9368 15.95 31.0642 15.754 31.0642 15.4864C31.0642 15.2979 30.993 15.1302 30.8506 14.9813C30.7082 14.8324 30.5152 14.7589 30.2753 14.7589C30.1554 14.7589 30.028 14.7834 29.8931 14.8305C29.0517 15.2696 28.3172 15.7427 27.6951 16.2516C27.0711 16.7604 26.4959 17.29 25.9693 17.8385C25.4428 18.3869 24.9387 18.9504 24.459 19.5309C23.9775 20.1114 23.4509 20.69 22.8813 21.2705C22.9563 19.8928 23.02 18.4717 23.0724 17.0054C23.1249 15.541 23.1511 13.9165 23.1511 12.1298C23.1511 11.0499 23.1399 10.0623 23.1174 9.16895C23.0949 8.27562 23.0724 7.39924 23.05 6.53795C23.0275 5.67665 23.0087 4.78331 22.9937 3.85982C22.9787 2.93633 22.9713 1.90918 22.9713 0.782147C22.9713 0.516408 22.8963 0.320402 22.7464 0.194129C22.5965 0.06974 22.4372 0.00566101 22.2723 0.00566101C22.1074 0.00566101 21.9538 0.0678553 21.8095 0.194129C21.6671 0.320402 21.5959 0.514523 21.5959 0.782147C21.5959 1.90918 21.6034 2.93633 21.6184 3.85982C21.6334 4.7852 21.6521 5.67665 21.6746 6.53795C21.6971 7.39924 21.7196 8.2775 21.742 9.16895C21.7645 10.0623 21.7758 11.048 21.7758 12.1298C21.7758 13.8524 21.7533 15.4317 21.7083 16.8641C21.6633 18.2983 21.6034 19.6798 21.5284 21.0104L21.4404 22.6048C21.3242 22.6029 21.1986 22.601 21.0544 22.5973C20.7396 22.5897 20.318 22.5784 19.7914 22.5615C19.5366 22.5615 19.2724 22.569 19.0025 22.586C18.7327 22.601 18.4535 22.6331 18.1687 22.6802C17.9738 21.8811 17.6647 21.1687 17.2449 20.543C17.065 20.2772 16.8514 20.0153 16.6022 19.7552C16.353 19.497 16.0682 19.2689 15.7459 19.0748C15.4217 18.8788 15.0582 18.7186 14.6516 18.5923C14.245 18.4679 13.7859 18.4039 13.2762 18.4039C12.6897 18.4039 12.1932 18.5716 11.7884 18.909C11.3818 19.2463 11.0483 19.6836 10.7841 20.2245C10.5199 20.7654 10.3325 21.3798 10.2201 22.0696C10.1076 22.7593 10.0514 23.4473 10.0514 24.137C10.0514 24.4424 10.0645 24.7383 10.0851 25.0285C10.0739 25.0681 10.0627 25.1058 10.0514 25.1491C9.65042 26.8171 8.77161 28.2381 7.9209 28.9976C7.23509 29.6101 6.22137 29.7572 5.34818 29.1164C3.66176 27.8781 3.71985 25.1491 3.58118 24.2087C3.97093 23.1589 4.32134 22.1487 4.63051 21.1781C4.93781 20.2075 5.20202 19.2444 5.41938 18.2889C5.63674 17.3334 5.80164 16.359 5.91594 15.3639C6.02837 14.3688 6.08458 13.3152 6.08458 12.2033C6.08458 11.7811 6.08083 11.3495 6.07334 10.9104C6.06584 10.4713 6.0471 10.0265 6.01712 9.57039C5.97215 9.02195 5.93842 8.49801 5.91594 7.99669C5.89345 7.49536 5.83349 7.02608 5.73605 6.58695C5.63862 6.14782 5.48122 5.75204 5.26198 5.3996C5.04275 5.04717 4.70921 4.74562 4.25763 4.49496C4.1377 4.44784 4.02902 4.40826 3.93159 4.37811C3.83415 4.34607 3.74795 4.33099 3.673 4.33099C3.32635 4.33099 3.01905 4.47234 2.74922 4.75316C2.47939 5.03586 2.24517 5.38829 2.05029 5.81046C1.85542 6.23263 1.69802 6.69249 1.57622 7.18439C1.4563 7.67818 1.37385 8.12861 1.32888 8.5357C1.20896 9.52327 1.12463 10.443 1.07966 11.2968C1.03469 12.1505 1.01221 12.9854 1.01221 13.7996C1.01221 14.8022 1.04594 15.9255 1.11339 17.1713C1.18085 18.4171 1.31201 19.7476 1.50876 21.1649C1.70364 22.5822 1.81045 24.2784 2.16272 25.8144C2.51499 27.3504 3.38069 30.5694 5.78665 30.9313C7.177 31.1405 8.52989 30.4639 9.04518 29.9701C9.90525 29.1465 10.3924 28.4718 10.6997 27.8857C10.8178 28.1684 10.949 28.4379 11.1007 28.6829C11.4549 29.2539 11.8859 29.7044 12.3974 30.0342C12.9071 30.364 13.5029 30.528 14.1775 30.528C14.8521 30.528 15.4554 30.3357 15.982 29.9532C16.5085 29.5687 16.9507 29.0919 17.3124 28.5208C17.674 27.9497 17.9513 27.3259 18.1462 26.6531C18.3411 25.9803 18.4404 25.3527 18.4404 24.7741V24.4574C18.4404 24.3557 18.4329 24.2501 18.4179 24.1408C18.7027 24.1088 18.9707 24.0862 19.218 24.0711C19.4672 24.056 19.7108 24.0466 19.9507 24.0466C20.4323 24.0466 20.8745 24.0504 21.2811 24.0579C21.3129 24.0579 21.3429 24.0598 21.3748 24.0617C21.3092 25.2207 21.2586 26.4005 21.223 27.6067C21.1855 28.9298 21.1668 30.3904 21.1668 31.9886C21.1668 32.1771 21.1743 32.4617 21.1893 32.8461C21.2043 33.2306 21.2417 33.6094 21.3017 33.9864C21.3617 34.3633 21.4553 34.695 21.5828 34.9852C21.7121 35.2755 21.8882 35.4206 22.1131 35.4206C22.2779 35.4206 22.4316 35.3584 22.5759 35.2321C22.7183 35.1059 22.7914 34.9268 22.7914 34.6912C22.7914 34.597 22.7839 34.5273 22.7689 34.4801C22.649 34.0731 22.5815 33.6886 22.5646 33.3286C22.5496 32.9686 22.5422 32.522 22.5422 31.9886C22.5422 30.4696 22.5609 29.0711 22.5984 27.7952C22.6358 26.5193 22.6846 25.2773 22.7445 24.0711C23.1343 24.1974 23.4959 24.4047 23.8276 24.693C24.1574 24.9833 24.4778 25.3074 24.7851 25.6674C25.0924 26.0274 25.4053 26.4005 25.7201 26.7831C26.0349 27.1676 26.3778 27.5144 26.747 27.8291C27.1142 28.142 27.5246 28.4002 27.9762 28.6037C28.4278 28.8073 28.9374 28.909 29.5089 28.909C30.0804 28.909 30.622 28.7338 31.1785 28.3813C31.735 28.0289 32.2578 27.6067 32.745 27.113C33.1385 26.7134 33.502 26.2931 33.8487 25.8596C33.8487 25.8615 33.8524 25.8634 33.8524 25.8653C34.0773 26.1555 35.1903 27.2449 36.7362 27.177C38.3832 27.1054 38.8779 26.5871 39.0728 26.4477C39.2677 26.3063 40.0284 25.6599 40.3133 24.9116C40.4032 25.1152 40.7648 25.4921 40.9597 25.7673C41.951 27.1751 43.5081 27.3335 44.7317 26.8189C44.7898 26.7944 44.8404 26.7699 44.8928 26.7454C45.3238 26.9396 45.8372 27.0753 46.4106 27.0489C48.0577 26.9773 48.5523 26.459 48.7472 26.3195C48.9421 26.1782 49.7029 25.5317 49.9877 24.7835C50.9377 27.5125 53.8065 27.1469 54.0313 27.1469C54.0088 27.1563 55.4517 26.9132 55.9613 26.1612C56.3548 27.6143 57.0987 29.3463 58.6596 30.364C59.5946 30.9728 60.9625 31.1518 61.6802 30.9992C63.5708 30.6015 64.5733 29.3651 65.0699 28.6169C65.7032 27.6614 66.0349 26.8208 66.1867 26.0971C66.6701 26.7888 67.2622 27.3711 67.9836 27.8329C68.3303 28.0986 68.7032 28.2814 69.1023 28.3813C69.5014 28.4831 69.9174 28.5321 70.354 28.5302C71.0154 28.5283 71.6507 28.4322 72.2578 28.2419C72.8649 28.0515 73.4626 27.8197 74.0472 27.5427C74.6337 27.2675 75.2146 26.9829 75.7918 26.6908C76.3689 26.3987 76.9516 26.1423 77.5363 25.9218C77.8511 25.8106 78.0085 25.5826 78.0066 25.2377C78.0066 25.0342 77.9485 24.8495 77.8361 24.6855L77.8342 24.6742ZM2.61805 17.339C2.50562 16.1799 2.44941 15.0133 2.44941 13.8392C2.44941 13.0401 2.47564 12.2221 2.52811 11.3834C2.58058 10.5467 2.66677 9.64201 2.78669 8.66952V8.57528C2.78669 8.43393 2.81667 8.23415 2.87664 7.97595C2.9366 7.71775 3.0153 7.45955 3.11274 7.20135C3.21017 6.94315 3.3226 6.71511 3.45189 6.52098C3.57931 6.32498 3.70298 6.22698 3.8229 6.22698C3.94283 6.22698 4.05526 6.32121 4.16019 6.50968C4.26512 6.69814 4.35881 7.01854 4.44313 7.47275C4.52558 7.92695 4.58929 8.53759 4.63426 9.30465C4.67923 10.0717 4.70172 11.0272 4.70172 12.1712C4.70172 13.8467 4.55931 15.394 4.27262 16.8113C3.9878 18.2286 3.59618 19.6741 3.09962 21.1461C2.88975 19.7684 2.72861 18.5 2.6143 17.339H2.61805ZM11.616 25.0398C11.7041 24.6308 11.7622 24.269 11.9196 23.5641C11.9646 23.4548 11.987 23.3681 11.987 23.3059C11.987 23.1344 11.9233 22.9968 11.7959 22.895C11.7041 22.8215 11.6029 22.7839 11.498 22.7631C11.5074 22.6632 11.513 22.5577 11.5242 22.4597C11.5767 22.0206 11.6816 21.638 11.839 21.3081C11.9964 20.9783 12.2156 20.7126 12.493 20.509C12.7703 20.3055 13.1357 20.1792 13.5873 20.1321L13.8571 20.1095C14.2637 20.1095 14.6235 20.1962 14.9402 20.3677C15.2549 20.5411 15.5341 20.7597 15.774 21.0254C16.0138 21.2912 16.2181 21.5927 16.383 21.9301C16.5479 22.2674 16.6828 22.5992 16.7896 22.929C15.9932 23.1024 15.2343 23.3059 14.5129 23.5396C13.7915 23.7752 13.1675 24.0259 12.641 24.2916C12.2269 24.5291 11.8877 24.7778 11.6179 25.0379L11.616 25.0398ZM17.0819 24.8325C17.0819 25.2547 17.0144 25.7221 16.8795 26.2309C16.7446 26.7398 16.5535 27.2185 16.3043 27.6633C16.0569 28.1099 15.744 28.485 15.3693 28.7903C14.9926 29.0956 14.5729 29.2483 14.1063 29.2483C13.8365 29.2483 13.576 29.1786 13.3287 29.0372C13.0813 28.8959 12.8584 28.7206 12.6635 28.5095C12.4686 28.2984 12.3093 28.0666 12.1894 27.8159C12.0695 27.5653 12.0095 27.3297 12.0095 27.1111C12.0095 26.9867 12.017 26.8924 12.032 26.8284C12.107 26.5306 12.3 26.2573 12.6073 26.0066C12.9146 25.756 13.3025 25.5298 13.769 25.3263C14.2356 25.1227 14.7528 24.9418 15.3243 24.7854C15.8958 24.6289 16.4748 24.4876 17.0613 24.3632C17.0763 24.4424 17.0838 24.5196 17.0838 24.5988V24.8344L17.0819 24.8325ZM38.0984 25.1246C37.8155 25.2867 36.7718 26.0443 35.6775 25.3131C34.2384 24.35 34.0791 21.67 34.3902 20.4299C34.6244 19.4989 35.1828 18.4001 36.4457 17.7461C38.194 16.8434 39.1178 19.5366 39.3932 20.5562C39.0897 20.2188 38.6568 20.004 38.1696 20.004C37.2552 20.004 36.5132 20.7503 36.5132 21.67C36.5132 22.5897 37.2552 23.3361 38.1696 23.3361C38.773 23.3361 39.2958 23.0081 39.5843 22.5238C39.5694 22.6595 39.5525 22.7744 39.5394 22.8705C39.3876 23.9523 38.9192 24.6572 38.0984 25.1265V25.1246ZM47.771 24.9946C47.5705 25.1095 46.9859 25.5223 46.2719 25.4921C46.0752 25.4846 45.8691 25.4394 45.6573 25.347C45.6405 25.3282 45.618 25.3206 45.5955 25.3206C45.5149 25.281 45.4325 25.2377 45.3519 25.183C43.9128 24.22 43.7536 21.54 44.0646 20.2998C44.2988 19.3688 44.8572 18.2701 46.1202 17.6161C47.6398 16.8302 48.5374 18.7676 48.9252 19.9568C48.7285 19.8796 48.5167 19.8343 48.2938 19.8343C47.3269 19.8343 46.5418 20.6221 46.5418 21.5965C46.5418 22.5709 47.325 23.3587 48.2938 23.3587C48.6029 23.3587 48.8878 23.272 49.1407 23.1306C48.9384 23.9957 48.4905 24.5875 47.7728 24.9983L47.771 24.9946ZM56.1169 17.3843C56.0044 16.2252 55.9745 12.2674 56.0269 11.4287C56.0794 10.5919 56.2537 8.39812 56.6453 7.43128C56.7839 7.09016 56.902 6.45125 57.3873 6.45125C58.4685 6.45125 58.4985 11.0894 58.4516 12.4916C58.3973 14.1671 58.0581 15.4393 57.7733 16.8565C57.4885 18.2738 57.0969 19.7194 56.6003 21.1913C56.3904 19.8136 56.2293 18.5452 56.115 17.3843H56.1169Z" fill="#1D1D1B"/>
        <path d="M46.5693 25.7877C46.6151 25.733 46.6831 25.5743 46.6908 25.4724C46.6747 25.3757 46.6004 25.2315 46.5562 25.1839C46.4821 25.1156 46.4021 25.0935 46.3988 25.0925C46.362 25.0808 46.3312 25.077 46.3289 25.0766C46.3127 25.0744 46.2994 25.0736 46.297 25.0734C46.288 25.0728 46.2796 25.0725 46.2752 25.0724C46.2646 25.072 46.2513 25.0718 46.2374 25.0715C46.2087 25.071 46.1686 25.0705 46.1217 25.0701C46.0276 25.0691 45.9021 25.0682 45.7774 25.0672C45.6523 25.0663 45.528 25.0653 45.4352 25.0644C45.3886 25.0639 45.351 25.0635 45.3256 25.063C45.3125 25.0628 45.3046 25.0626 45.3009 25.0625C45.2982 25.0624 45.3011 25.0625 45.3066 25.0628C45.3072 25.0629 45.3191 25.0636 45.3345 25.0657C45.3364 25.066 45.3669 25.0697 45.4035 25.0813C45.4067 25.0823 45.4867 25.1044 45.5607 25.1727C45.6049 25.2203 45.6792 25.3645 45.6953 25.4611C45.6876 25.563 45.6196 25.7217 45.5738 25.7764L44.9791 25.1852C44.9333 25.24 44.8653 25.3987 44.8576 25.5005C44.8736 25.5972 44.948 25.7414 44.9922 25.7891C45.0662 25.8574 45.1463 25.8795 45.1496 25.8805C45.1863 25.8922 45.2171 25.896 45.2195 25.8963C45.2357 25.8986 45.249 25.8994 45.2514 25.8995C45.2604 25.9001 45.2688 25.9004 45.2732 25.9006C45.2838 25.9009 45.2971 25.9012 45.311 25.9014C45.3397 25.9019 45.3798 25.9024 45.4267 25.9029C45.5208 25.9038 45.6463 25.9048 45.771 25.9057C45.8961 25.9067 46.0204 25.9076 46.1132 25.9086C46.1598 25.909 46.1973 25.9095 46.2228 25.9099C46.2359 25.9101 46.2438 25.9103 46.2475 25.9105C46.2502 25.9106 46.2472 25.9105 46.2418 25.9101C46.2412 25.9101 46.2293 25.9094 46.2139 25.9073C46.2119 25.907 46.1815 25.9033 46.1448 25.8916C46.1417 25.8906 46.0617 25.8685 45.9877 25.8003C45.9435 25.7527 45.8691 25.6085 45.8531 25.5118C45.8608 25.4099 45.9288 25.2513 45.9746 25.1965L46.5693 25.7877ZM77.8342 24.6742L78.6614 24.537L78.631 24.3534L78.5258 24.2L77.8342 24.6742ZM77.3939 24.4292V25.2678L77.4026 25.2677L77.3939 24.4292ZM77.0791 24.5253L77.344 25.3209L77.4346 25.2907L77.5161 25.2409L77.0791 24.5253ZM75.4357 25.2132L75.8157 25.9607L75.8189 25.9591L75.4357 25.2132ZM72.2278 26.6456L72.4927 27.4411L72.4935 27.4409L72.2278 26.6456ZM70.5039 26.9207L70.5013 26.0822L70.5002 26.0822L70.5039 26.9207ZM68.3247 26.1178L67.7575 26.7355L67.758 26.736L68.3247 26.1178ZM65.7313 14.8531L65.8313 14.0206L64.8316 13.9005L64.8944 14.9054L65.7313 14.8531ZM67.8843 14.9361L67.8693 15.7745L67.8717 15.7745L67.8843 14.9361ZM72.8949 14.3443L72.4008 13.6667L72.3953 13.6708L72.8949 14.3443ZM73.0391 13.1795L72.3378 13.6393L72.3414 13.6446L73.0391 13.1795ZM72.462 12.9119L72.5671 13.7438L72.5995 13.7398L72.6315 13.7332L72.462 12.9119ZM66.4696 13.2474L66.5009 12.4094L66.4997 12.4094L66.4696 13.2474ZM65.5421 13.2267L64.7036 13.236L64.7118 13.9734L65.4443 14.0595L65.5421 13.2267ZM65.4746 7.17874L64.636 7.17874L64.6361 7.18809L65.4746 7.17874ZM65.2085 6.34383L65.7432 5.69784L65.7399 5.69514L65.2085 6.34383ZM64.607 6.09505V6.93362L64.6146 6.93356L64.607 6.09505ZM63.895 6.63972L63.1015 6.36853L63.895 6.63972ZM63.8032 13.0589L63.6655 13.8861L64.6732 14.0539L64.6413 13.0327L63.8032 13.0589ZM62.3828 12.9477L62.3828 13.7863L62.3881 13.7863L62.3828 12.9477ZM61.7326 13.7713L62.5712 13.7713L62.5711 13.7635L61.7326 13.7713ZM61.9819 14.3575L61.4769 15.0269L61.4805 15.0296L61.9819 14.3575ZM63.8688 14.6967L64.7073 14.694L64.705 13.9688L63.987 13.8665L63.8688 14.6967ZM64.8075 23.1777L65.6323 23.0265L65.6319 23.0242L64.8075 23.1777ZM64.9106 23.6998L65.749 23.6825L65.7473 23.6029L65.7307 23.5251L64.9106 23.6998ZM62.8588 28.7375L62.3471 28.0732L62.3464 28.0738L62.8588 28.7375ZM59.4841 28.7488L59.9563 28.0559L59.9561 28.0558L59.4841 28.7488ZM57.2917 24.3255L56.5056 24.0337L56.4306 24.2358L56.4623 24.449L57.2917 24.3255ZM59.9057 14.7514L59.0711 14.6702L59.071 14.6708L59.9057 14.7514ZM59.8588 8.45843L59.026 8.55567L59.026 8.55593L59.8588 8.45843ZM58.9613 5.2281L59.6649 4.77192L59.6648 4.77184L58.9613 5.2281ZM56.2424 4.79462L55.6378 4.21363L55.6358 4.21566L56.2424 4.79462ZM55.0694 7.22585L54.2554 7.02431L54.2546 7.02795L55.0694 7.22585ZM54.8221 8.57717L55.6546 8.67825L55.6555 8.66924L54.8221 8.57717ZM55.002 21.2064L55.8326 21.0912L55.8325 21.0911L55.002 21.2064ZM55.4517 23.8694L56.2026 24.2427L56.3293 23.9877L56.2746 23.7082L55.4517 23.8694ZM54.4661 25.3772L54.057 24.6452L54.0569 24.6452L54.4661 25.3772ZM52.1894 25.2132L51.558 25.765L51.5582 25.7653L52.1894 25.2132ZM51.1869 22.5143L52.0152 22.3837L52.0149 22.3815L51.1869 22.5143ZM47.4075 16.065L47.5127 15.2331L47.5124 15.233L47.4075 16.065ZM43.4331 17.7951L42.7466 17.3135L42.74 17.3231L43.4331 17.7951ZM42.3351 21.1442L41.4983 21.0894L41.4983 21.0896L42.3351 21.1442ZM43.3994 25.5317L43.3338 26.3677L44.9108 26.4914L44.1281 25.1168L43.3994 25.5317ZM41.1115 22.0262L40.2811 22.1428L40.2813 22.1441L41.1115 22.0262ZM40.6281 20.1227L41.433 19.8876L41.4328 19.887L40.6281 20.1227ZM37.7349 16.1931L37.63 17.0251L37.6304 17.0251L37.7349 16.1931ZM33.7606 17.9233L33.0741 17.4417L33.068 17.4506L33.7606 17.9233ZM32.6625 21.2723L31.8258 21.2175L31.8258 21.2177L32.6625 21.2723ZM33.0673 24.465L33.7328 24.9751L34.0104 24.613L33.8571 24.1832L33.0673 24.465ZM32.2597 25.4714L31.6202 24.929L31.6197 24.9296L32.2597 25.4714ZM30.8843 26.8585L31.4237 27.5005L31.425 27.4995L30.8843 26.8585ZM26.4415 25.4601L27.0926 24.9317L27.0897 24.928L26.4415 25.4601ZM24.5715 23.3926L25.143 22.779L25.1394 22.7757L24.5715 23.3926ZM23.5334 22.6764L22.9289 22.0953L22.1217 22.935L23.1741 23.4341L23.5334 22.6764ZM26.747 19.1408L27.3517 19.7217L27.3527 19.7206L26.747 19.1408ZM28.4821 17.5426L27.9521 16.8927L27.9512 16.8935L28.4821 17.5426ZM30.6819 16.0744L30.3141 15.3208L30.2938 15.3307L30.2741 15.3417L30.6819 16.0744ZM29.8931 14.8305L29.6166 14.0389L29.5591 14.059L29.5051 14.0871L29.8931 14.8305ZM27.6951 16.2516L28.2251 16.9014L28.226 16.9006L27.6951 16.2516ZM24.459 19.5309L25.1044 20.0663L25.1054 20.0651L24.459 19.5309ZM22.8813 21.2705L22.044 21.2249L21.9233 23.4439L23.4798 21.8578L22.8813 21.2705ZM23.0724 17.0054L22.2344 16.9754L22.2344 16.9754L23.0724 17.0054ZM22.7464 0.194129L23.2866 -0.447218L23.2819 -0.45118L22.7464 0.194129ZM21.8095 0.194129L21.2572 -0.436895L21.2532 -0.433288L21.8095 0.194129ZM21.6184 3.85982L22.4568 3.84624L22.4568 3.84621L21.6184 3.85982ZM21.742 9.16895L22.5803 9.14785L22.5803 9.14781L21.742 9.16895ZM21.7083 16.8641L20.8702 16.8378L20.8702 16.8378L21.7083 16.8641ZM21.5284 21.0104L20.6912 20.9632L20.6912 20.9641L21.5284 21.0104ZM21.4404 22.6048L21.4268 23.4432L22.2331 23.4563L22.2776 22.6511L21.4404 22.6048ZM21.0544 22.5973L21.0763 21.759L21.0744 21.759L21.0544 22.5973ZM19.7914 22.5615L19.8184 21.7234L19.8049 21.7229H19.7914V22.5615ZM19.0025 22.586L19.0493 23.4232L19.0552 23.4228L19.0025 22.586ZM18.1687 22.6802L17.354 22.8789L17.5383 23.6344L18.3056 23.5075L18.1687 22.6802ZM17.2449 20.543L17.9413 20.0758L17.9393 20.0729L17.2449 20.543ZM16.6022 19.7552L17.2077 19.175L17.2056 19.1728L16.6022 19.7552ZM15.7459 19.0748L15.312 19.7924L15.3132 19.7931L15.7459 19.0748ZM14.6516 18.5923L14.9003 17.7915L14.8969 17.7905L14.6516 18.5923ZM11.7884 18.909L12.3238 19.5543L12.3253 19.5531L11.7884 18.909ZM10.0851 25.0285L10.8918 25.2576L10.932 25.116L10.9216 24.9691L10.0851 25.0285ZM10.0514 25.1491L9.23973 24.9386L9.23785 24.9458L9.2361 24.9531L10.0514 25.1491ZM7.9209 28.9976L7.36243 28.3721L7.36232 28.3722L7.9209 28.9976ZM5.34818 29.1164L4.8519 29.7923L4.85207 29.7924L5.34818 29.1164ZM3.58118 24.2087L2.79508 23.9168L2.72026 24.1183L2.75161 24.331L3.58118 24.2087ZM4.63051 21.1781L5.4295 21.4326L5.42994 21.4312L4.63051 21.1781ZM5.91594 15.3639L6.749 15.4596L6.74918 15.458L5.91594 15.3639ZM6.01712 9.57039L6.85397 9.51538L6.85286 9.50186L6.01712 9.57039ZM4.25763 4.49496L4.66459 3.76179L4.61599 3.73482L4.56426 3.71449L4.25763 4.49496ZM3.93159 4.37811L3.66965 5.17469L3.67664 5.17699L3.68368 5.17917L3.93159 4.37811ZM2.74922 4.75316L2.14456 4.17217L2.14263 4.17419L2.74922 4.75316ZM1.57622 7.18439L0.762251 6.98285L0.761366 6.98649L1.57622 7.18439ZM1.32888 8.5357L2.16135 8.63679L2.16235 8.62778L1.32888 8.5357ZM1.50876 21.1649L2.33949 21.0507L2.33934 21.0496L1.50876 21.1649ZM5.78665 30.9313L5.91141 30.1021L5.91136 30.1021L5.78665 30.9313ZM9.04518 29.9701L8.46522 29.3645L8.46501 29.3647L9.04518 29.9701ZM10.6997 27.8857L11.4735 27.5626L10.7858 25.9156L9.95708 27.4963L10.6997 27.8857ZM11.1007 28.6829L10.3879 29.1245L10.3881 29.1248L11.1007 28.6829ZM12.3974 30.0342L12.853 29.3302L12.8518 29.3294L12.3974 30.0342ZM15.982 29.9532L16.4749 30.6315L16.4765 30.6304L15.982 29.9532ZM18.4179 24.1408L18.3242 23.3075L17.4704 23.4036L17.5872 24.2547L18.4179 24.1408ZM19.218 24.0711L19.1674 23.2341L19.167 23.2341L19.218 24.0711ZM21.2811 24.0579L21.2655 24.8963L21.2733 24.8964H21.2811V24.0579ZM21.3748 24.0617L22.212 24.109L22.2592 23.274L21.4243 23.2246L21.3748 24.0617ZM21.223 27.6067L20.3848 27.582L20.3848 27.583L21.223 27.6067ZM21.5828 34.9852L20.8149 35.3223L20.8168 35.3265L21.5828 34.9852ZM22.5759 35.2321L23.1281 35.8632L23.1322 35.8595L22.5759 35.2321ZM22.7689 34.4801L21.9645 34.7171L21.9671 34.7258L21.9698 34.7344L22.7689 34.4801ZM22.5646 33.3286L21.7268 33.3635L21.727 33.3679L22.5646 33.3286ZM22.7445 24.0711L23.003 23.2734L21.9614 22.9359L21.907 24.0295L22.7445 24.0711ZM23.8276 24.693L24.3816 24.0635L24.3778 24.0602L23.8276 24.693ZM25.7201 26.7831L26.3689 26.2519L26.3676 26.2503L25.7201 26.7831ZM26.747 27.8291L26.2029 28.4672L26.2032 28.4675L26.747 27.8291ZM32.745 27.113L33.3419 27.7019L33.3424 27.7013L32.745 27.113ZM33.8487 25.8596H34.6872V23.4685L33.1938 25.3359L33.8487 25.8596ZM33.8524 25.8653H33.0139V26.1521L33.1895 26.3788L33.8524 25.8653ZM36.7362 27.177L36.6997 26.3393L36.6994 26.3393L36.7362 27.177ZM39.0728 26.4477L39.5608 27.1296L39.5651 27.1264L39.0728 26.4477ZM40.3133 24.9116L41.0803 24.5727L40.2555 22.7063L39.5296 24.6133L40.3133 24.9116ZM40.9597 25.7673L41.6454 25.2845L41.644 25.2827L40.9597 25.7673ZM44.7317 26.8189L45.0567 27.5919L45.0576 27.5916L44.7317 26.8189ZM44.8928 26.7454L45.2372 25.9809L44.8865 25.8229L44.538 25.9857L44.8928 26.7454ZM46.4106 27.0489L46.3742 26.2111L46.3721 26.2112L46.4106 27.0489ZM48.7472 26.3195L49.2352 27.0014L49.2396 26.9983L48.7472 26.3195ZM49.9877 24.7835L50.7796 24.5078L50.0229 22.334L49.204 24.4852L49.9877 24.7835ZM54.0313 27.1469L54.3554 27.9202L54.0313 26.3083V27.1469ZM55.9613 26.1612L56.7707 25.942L56.2929 24.1774L55.2672 25.6907L55.9613 26.1612ZM58.6596 30.364L58.2016 31.0664L58.2021 31.0667L58.6596 30.364ZM61.6802 30.9992L61.5076 30.1786L61.5057 30.179L61.6802 30.9992ZM65.0699 28.6169L65.7686 29.0806L65.7688 29.0802L65.0699 28.6169ZM66.1867 26.0971L66.874 25.6167L65.7637 24.0283L65.366 25.925L66.1867 26.0971ZM67.9836 27.8329L68.4938 27.1674L68.4656 27.1458L68.4357 27.1266L67.9836 27.8329ZM69.1023 28.3813L69.3095 27.5688L69.3059 27.5679L69.1023 28.3813ZM70.354 28.5302L70.3516 27.6917L70.3504 27.6917L70.354 28.5302ZM74.0472 27.5427L73.6911 26.7835L73.6882 26.7849L74.0472 27.5427ZM77.5363 25.9218L77.257 25.1312L77.2486 25.1341L77.2403 25.1372L77.5363 25.9218ZM78.0066 25.2377L77.168 25.2377L77.1681 25.2423L78.0066 25.2377ZM77.8361 24.6855L77.0088 24.8227L77.0393 25.0062L77.1445 25.1597L77.8361 24.6855ZM2.61805 17.339V18.1776H3.54187L3.45268 17.2581L2.61805 17.339ZM2.52811 11.3834L1.69121 11.331L1.6912 11.3311L2.52811 11.3834ZM2.78669 8.66952L3.61893 8.77214L3.62524 8.72102V8.66952H2.78669ZM3.45189 6.52098L4.14985 6.98585L4.15494 6.97802L3.45189 6.52098ZM4.44313 7.47275L5.2682 7.32298L5.26759 7.31969L4.44313 7.47275ZM4.27262 16.8113L3.45072 16.6451L3.45051 16.6461L4.27262 16.8113ZM3.09962 21.1461L2.27064 21.2723L3.89417 21.4141L3.09962 21.1461ZM2.6143 17.339V16.5005H1.68915L1.7798 17.4212L2.6143 17.339ZM11.616 25.0398L10.7963 24.8633L10.1941 27.6599L12.2108 25.631L11.616 25.0398ZM11.9196 23.5641L11.1441 23.2451L11.1168 23.3114L11.1012 23.3814L11.9196 23.5641ZM11.7959 22.895L11.2719 23.5497L11.2726 23.5502L11.7959 22.895ZM11.498 22.7631L10.6631 22.6848L10.5924 23.4389L11.3355 23.5858L11.498 22.7631ZM11.5242 22.4597L10.6916 22.3602L10.6911 22.3641L11.5242 22.4597ZM13.5873 20.1321L13.5172 19.2965L13.5087 19.2972L13.5003 19.2981L13.5873 20.1321ZM13.8571 20.1095V19.271H13.822L13.7871 19.2739L13.8571 20.1095ZM14.9402 20.3677L15.3447 19.6332L15.3395 19.6303L14.9402 20.3677ZM16.7896 22.929L16.968 23.7483L17.8726 23.5514L17.5873 22.6706L16.7896 22.929ZM14.5129 23.5396L14.2545 22.7419L14.2526 22.7425L14.5129 23.5396ZM12.641 24.2916L12.2632 23.543L12.2432 23.5531L12.2239 23.5642L12.641 24.2916ZM11.6179 25.0379L11.036 24.4342L11.0295 24.4404L11.0232 24.4468L11.6179 25.0379ZM17.0819 24.8325L17.6772 24.2419L16.2434 22.7967V24.8325H17.0819ZM16.3043 27.6633L15.5727 27.2534L15.5707 27.2571L16.3043 27.6633ZM15.3693 28.7903L15.8973 29.4417L15.8989 29.4404L15.3693 28.7903ZM12.032 26.8284L11.2187 26.6237L11.2155 26.6374L12.032 26.8284ZM17.0613 24.3632L17.8852 24.2072L17.7257 23.3651L16.8873 23.5429L17.0613 24.3632ZM17.0838 24.8344L16.4885 25.425L17.9223 26.8702V24.8344H17.0838ZM38.0984 25.1246H38.937V23.6779L37.6816 24.397L38.0984 25.1246ZM35.6775 25.3131L35.2111 26.01L35.2116 26.0103L35.6775 25.3131ZM34.3902 20.4299L33.577 20.2253L33.5768 20.2259L34.3902 20.4299ZM36.4457 17.7461L36.061 17.001L36.0601 17.0015L36.4457 17.7461ZM39.3932 20.5562L38.7699 21.1171L40.2027 20.3375L39.3932 20.5562ZM39.5843 22.5238L40.4178 22.6158L38.864 22.0946L39.5843 22.5238ZM39.5394 22.8705L40.3698 22.9871L40.3702 22.9839L39.5394 22.8705ZM38.0984 25.1265H37.2599V26.5719L38.5147 25.8544L38.0984 25.1265ZM47.771 24.9946L48.522 24.6217L48.1261 23.8243L47.3539 24.2671L47.771 24.9946ZM46.2719 25.4921L46.3073 24.6543L46.304 24.6542L46.2719 25.4921ZM45.6573 25.347L45.0324 25.9062L45.1544 26.0425L45.3221 26.1156L45.6573 25.347ZM45.5955 25.3206L45.2258 26.0733L45.4007 26.1592H45.5955V25.3206ZM45.3519 25.183L45.8226 24.4891L45.8183 24.4862L45.3519 25.183ZM44.0646 20.2998L43.2514 20.0953L43.2513 20.0958L44.0646 20.2998ZM46.1202 17.6161L45.735 16.8712L45.7346 16.8714L46.1202 17.6161ZM48.9252 19.9568L48.6187 20.7373L50.2738 21.3874L49.7224 19.6968L48.9252 19.9568ZM49.1407 23.1306L49.9572 23.3216L50.3899 21.472L48.7317 22.3986L49.1407 23.1306ZM47.7728 24.9983L47.0218 25.3713L47.4174 26.1681L48.1895 25.7261L47.7728 24.9983ZM56.1169 17.3843V18.2228H57.0407L56.9515 17.3033L56.1169 17.3843ZM56.0269 11.4287L55.19 11.3762L55.19 11.3763L56.0269 11.4287ZM56.6453 7.43128L55.8685 7.11552L55.8681 7.11647L56.6453 7.43128ZM58.4516 12.4916L57.6135 12.4636L57.6135 12.4645L58.4516 12.4916ZM56.6003 21.1913L55.7713 21.3176L57.3949 21.4593L56.6003 21.1913ZM56.115 17.3843V16.5457H55.1898L55.2805 17.4664L56.115 17.3843ZM78.5258 24.2C78.2765 23.8364 77.8801 23.5855 77.3851 23.5907L77.4026 25.2677C77.3558 25.2682 77.2927 25.2563 77.2311 25.2219C77.1727 25.1894 77.1464 25.154 77.1426 25.1484L78.5258 24.2ZM77.3939 23.5906C77.1099 23.5906 76.8557 23.6792 76.642 23.8096L77.5161 25.2409C77.5155 25.2413 77.5038 25.2483 77.4813 25.2552C77.4581 25.2623 77.4281 25.2677 77.3939 25.2677V23.5906ZM76.8141 23.7297C76.2041 23.9329 75.6172 24.1773 75.0526 24.4673L75.8189 25.9591C76.3035 25.7101 76.811 25.4984 77.344 25.3209L76.8141 23.7297ZM75.0558 24.4657C74.5356 24.73 74.014 24.9868 73.4891 25.2359L74.2081 26.751C74.7475 26.495 75.2828 26.2316 75.8157 25.9607L75.0558 24.4657ZM73.4891 25.2359C72.9882 25.4736 72.478 25.6778 71.9621 25.8502L72.4935 27.4409C73.0719 27.2476 73.6448 27.0184 74.2081 26.751L73.4891 25.2359ZM71.9629 25.85C71.5032 26.003 71.0187 26.0806 70.5013 26.0822L70.5065 27.7592C71.1921 27.7571 71.8544 27.6537 72.4927 27.4411L71.9629 25.85ZM70.5002 26.0822C69.8336 26.0851 69.3128 25.8861 68.8913 25.4997L67.758 26.736C68.5208 27.4352 69.4616 27.7639 70.5076 27.7592L70.5002 26.0822ZM68.8918 25.5002C67.5468 24.2652 67.3358 22.3879 67.106 21.2529L65.4622 21.5858C65.6446 22.4862 65.9171 25.0455 67.7575 26.7355L68.8918 25.5002ZM67.106 21.2529C67.0163 20.8101 66.8815 19.2391 66.7667 17.6925C66.7107 16.9381 66.661 16.215 66.6254 15.6802C66.6076 15.4129 66.5933 15.1929 66.5834 15.0397C66.5785 14.9632 66.5747 14.9033 66.5721 14.8627C66.5708 14.8424 66.5699 14.8269 66.5692 14.8164C66.5689 14.8112 66.5686 14.8073 66.5685 14.8047C66.5684 14.8034 66.5683 14.8024 66.5683 14.8018C66.5683 14.8015 66.5683 14.8012 66.5682 14.8011C66.5682 14.801 66.5682 14.8009 66.5682 14.8009C66.5682 14.8009 66.5682 14.8008 65.7313 14.8531C64.8944 14.9054 64.8944 14.9055 64.8944 14.9055C64.8944 14.9056 64.8944 14.9056 64.8944 14.9057C64.8944 14.9059 64.8945 14.9062 64.8945 14.9065C64.8945 14.9072 64.8946 14.9083 64.8947 14.9096C64.8949 14.9123 64.8951 14.9164 64.8954 14.9217C64.8961 14.9324 64.8971 14.9481 64.8984 14.9687C64.901 15.0098 64.9049 15.0702 64.9098 15.1473C64.9197 15.3016 64.9341 15.523 64.952 15.7917C64.9878 16.3291 65.0378 17.0567 65.0942 17.8167C65.2042 19.2987 65.3458 21.0109 65.4622 21.5858L67.106 21.2529ZM65.6313 15.6857C66.0622 15.7374 67.4767 15.7674 67.8693 15.7745L67.8994 14.0977C67.4525 14.0896 66.1537 14.0593 65.8313 14.0206L65.6313 15.6857ZM67.8717 15.7745C68.6744 15.7866 69.7695 15.7057 70.6689 15.6198C71.5506 15.5356 72.3371 15.4376 72.5047 15.4025L72.1607 13.761C72.1673 13.7597 72.1313 13.7661 72.0254 13.7806C71.9323 13.7933 71.8065 13.8094 71.6547 13.8276C71.3514 13.864 70.9503 13.9082 70.5095 13.9503C69.6175 14.0355 68.6007 14.1082 67.8969 14.0976L67.8717 15.7745ZM72.5047 15.4025C72.8214 15.3361 73.1275 15.2158 73.3944 15.0178L72.3953 13.6708C72.3624 13.6952 72.2938 13.7331 72.1607 13.761L72.5047 15.4025ZM73.3889 15.0218C73.5767 14.8848 73.7293 14.6988 73.8363 14.5067C73.9442 14.3131 74.0388 14.0538 74.0388 13.7581H72.3618C72.3618 13.7255 72.367 13.7046 72.3693 13.6968C72.3716 13.6889 72.373 13.6873 72.3713 13.6904C72.3696 13.6935 72.368 13.6953 72.3687 13.6945C72.3693 13.6938 72.3716 13.6912 72.3761 13.687C72.3804 13.6829 72.3885 13.6757 72.4008 13.6667L73.3889 15.0218ZM74.0388 13.7581C74.0388 13.431 73.9638 13.0549 73.7369 12.7145L72.3414 13.6446C72.3431 13.6472 72.3618 13.6781 72.3618 13.7581H74.0388ZM73.7404 12.7198C73.6459 12.5756 73.4859 12.3732 73.2309 12.229C72.9538 12.0721 72.6297 12.0211 72.2926 12.0907L72.6315 13.7332C72.6169 13.7362 72.5826 13.7405 72.5352 13.7334C72.4871 13.7262 72.4423 13.7097 72.4051 13.6886C72.3375 13.6504 72.32 13.612 72.3379 13.6393L73.7404 12.7198ZM72.462 12.9119C72.3569 12.08 72.3569 12.08 72.357 12.08C72.357 12.08 72.357 12.08 72.3569 12.08C72.3569 12.08 72.3568 12.08 72.3567 12.08C72.3564 12.0801 72.3559 12.0801 72.3552 12.0802C72.3538 12.0804 72.3516 12.0807 72.3486 12.081C72.3426 12.0818 72.3335 12.0829 72.3212 12.0844C72.2967 12.0874 72.2599 12.0919 72.212 12.0975C72.116 12.1088 71.9752 12.125 71.7979 12.1442C71.4431 12.1825 70.9431 12.2327 70.3638 12.2799C69.1986 12.3749 67.7393 12.4556 66.5009 12.4094L66.4383 14.0854C67.7764 14.1353 69.3133 14.0482 70.5001 13.9515C71.0969 13.9028 71.6119 13.8511 71.9781 13.8115C72.1613 13.7917 72.3075 13.7749 72.4085 13.763C72.4589 13.7571 72.4981 13.7524 72.5248 13.7491C72.5382 13.7474 72.5485 13.7462 72.5556 13.7453C72.5592 13.7448 72.5619 13.7445 72.5638 13.7443C72.5648 13.7441 72.5656 13.744 72.5661 13.744C72.5664 13.7439 72.5666 13.7439 72.5668 13.7439C72.5669 13.7439 72.5669 13.7439 72.567 13.7439C72.5671 13.7439 72.5671 13.7438 72.462 12.9119ZM66.4997 12.4094C66.3766 12.405 66.1725 12.4074 66.0257 12.407C65.8478 12.4065 65.714 12.4026 65.6399 12.3938L65.4443 14.0595C65.6269 14.0809 65.8519 14.0836 66.0211 14.084C66.2214 14.0846 66.3527 14.0823 66.4395 14.0854L66.4997 12.4094ZM66.3806 13.2173L66.3131 7.16938L64.6361 7.18809L64.7036 13.236L66.3806 13.2173ZM66.3132 7.17874C66.3132 6.953 66.283 6.70147 66.2141 6.46505C66.1525 6.25385 66.0247 5.93085 65.7432 5.69785L64.6739 6.9898C64.6148 6.94091 64.5922 6.89887 64.5909 6.89657C64.5884 6.89193 64.5948 6.90297 64.604 6.93453C64.6128 6.96466 64.6212 7.00354 64.6272 7.04857C64.6332 7.09329 64.6361 7.13809 64.6361 7.17874H66.3132ZM65.7399 5.69514C65.4759 5.47889 65.08 5.25222 64.5995 5.25654L64.6146 6.93356C64.5808 6.93386 64.5697 6.92573 64.5858 6.93266C64.6024 6.93984 64.6343 6.95741 64.6772 6.99251L65.7399 5.69514ZM64.607 5.25651C64.6276 5.25651 64.2497 5.22048 63.9052 5.38186C63.5034 5.57003 63.2508 5.93174 63.1015 6.36853L64.6885 6.9109C64.7176 6.82563 64.7369 6.80604 64.7272 6.8184C64.7217 6.82534 64.7095 6.83923 64.6893 6.85555C64.6687 6.8721 64.6441 6.88767 64.6166 6.90059C64.5601 6.92702 64.5149 6.93134 64.5048 6.93202C64.5012 6.93226 64.5035 6.93189 64.52 6.93215C64.5294 6.9323 64.5368 6.9325 64.5526 6.93286C64.5657 6.93316 64.5856 6.93359 64.607 6.93359V5.25651ZM63.1015 6.36853C63.0316 6.57316 62.9994 6.84017 62.979 7.06473C62.9561 7.31655 62.9404 7.61886 62.9295 7.9457C62.9078 8.60083 62.9048 9.39168 62.9101 10.1492C62.9154 10.9085 62.9291 11.642 62.9415 12.1853C62.9477 12.4571 62.9536 12.6816 62.9579 12.8384C62.9601 12.9168 62.9619 12.9782 62.9631 13.0202C62.9637 13.0412 62.9642 13.0573 62.9645 13.0682C62.9647 13.0737 62.9648 13.0779 62.9649 13.0807C62.965 13.0821 62.965 13.0832 62.965 13.0839C62.965 13.0843 62.965 13.0846 62.9651 13.0848C62.9651 13.0849 62.9651 13.085 62.9651 13.085C62.9651 13.0851 62.9651 13.0851 63.8032 13.0589C64.6413 13.0327 64.6413 13.0327 64.6413 13.0327C64.6413 13.0327 64.6413 13.0326 64.6413 13.0326C64.6413 13.0324 64.6413 13.0322 64.6413 13.0319C64.6413 13.0312 64.6413 13.0303 64.6412 13.029C64.6411 13.0264 64.641 13.0225 64.6409 13.0172C64.6405 13.0068 64.6401 12.9912 64.6395 12.9707C64.6382 12.9297 64.6365 12.8694 64.6344 12.7921C64.6301 12.6377 64.6243 12.4158 64.6182 12.1471C64.6059 11.6092 64.5924 10.885 64.5871 10.1375C64.5819 9.38819 64.5851 8.62324 64.6057 8.00126C64.616 7.68955 64.6305 7.42298 64.6492 7.21656C64.6705 6.98288 64.6914 6.90228 64.6885 6.9109L63.1015 6.36853ZM63.9409 12.2318C63.6376 12.1813 63.5894 12.1843 63.3405 12.1574L63.1604 13.8248C63.4699 13.8582 63.4254 13.8461 63.6655 13.8861L63.9409 12.2318ZM63.3405 12.1574C63.0294 12.1238 62.709 12.1071 62.3776 12.1092L62.3881 13.7863C62.6563 13.7846 62.913 13.7981 63.1604 13.8248L63.3405 12.1574ZM62.3828 12.1092C61.9031 12.1092 61.4465 12.318 61.1708 12.7737L62.6056 13.642C62.5862 13.6739 62.5451 13.7211 62.4808 13.755C62.4204 13.7867 62.3785 13.7863 62.3828 13.7863V12.1092ZM61.1708 12.7737C60.9867 13.0779 60.8908 13.419 60.8941 13.7791L62.5711 13.7635C62.5707 13.7203 62.5798 13.6845 62.6056 13.642L61.1708 12.7737ZM60.8941 13.7713C60.8941 14.2219 61.0465 14.7022 61.4769 15.0269L62.4868 13.688C62.5034 13.7005 62.5204 13.7168 62.5355 13.7363C62.5506 13.7557 62.5606 13.7741 62.5667 13.7885C62.5786 13.8164 62.5712 13.8174 62.5712 13.7713H60.8941ZM61.4805 15.0296C61.7693 15.245 62.1029 15.3746 62.4607 15.4308L62.721 13.7741C62.5991 13.7549 62.528 13.7187 62.4832 13.6853L61.4805 15.0296ZM62.4607 15.4308C62.7398 15.4747 63.0325 15.5001 63.3338 15.5085L63.3807 13.8321C63.1423 13.8254 62.9215 13.8056 62.721 13.7741L62.4607 15.4308ZM63.3338 15.5085C63.408 15.5106 63.4657 15.5114 63.5122 15.5119C63.5618 15.5124 63.5869 15.5126 63.6114 15.5133C63.6423 15.5141 63.6707 15.5155 63.7505 15.5269L63.987 13.8665C63.8551 13.8478 63.7626 13.8397 63.6581 13.8368C63.6149 13.8356 63.5688 13.8353 63.5302 13.8349C63.4886 13.8344 63.4414 13.8338 63.3807 13.8321L63.3338 15.5085ZM63.0302 14.6994C63.0312 15.007 63.046 15.4008 63.0587 15.7406C63.0722 16.1018 63.0822 16.3776 63.0792 16.501L64.7558 16.5412C64.7603 16.3517 64.7469 16.0055 64.7346 15.6779C64.7215 15.3289 64.7082 14.9669 64.7073 14.694L63.0302 14.6994ZM63.0792 16.501C63.0766 16.6099 63.0966 16.7988 63.1128 16.9491C63.1329 17.135 63.1619 17.3805 63.1969 17.6653C63.267 18.2358 63.3627 18.9745 63.4639 19.7309C63.6645 21.2307 63.8921 22.8423 63.9832 23.3313L65.6319 23.0242C65.5506 22.5878 65.3294 21.0276 65.1262 19.5085C65.0255 18.7556 64.9306 18.0232 64.8614 17.4607C64.8268 17.1791 64.799 16.9428 64.7802 16.7689C64.7576 16.5593 64.7565 16.5105 64.7558 16.5412L63.0792 16.501ZM63.9828 23.329C64.0197 23.5305 64.055 23.708 64.0905 23.8745L65.7307 23.5251C65.6988 23.375 65.6666 23.2132 65.6323 23.0265L63.9828 23.329ZM64.0722 23.7171C64.0975 24.9371 63.9051 26.8732 62.3471 28.0732L63.3705 29.4019C65.6051 27.6806 65.7762 24.9993 65.749 23.6825L64.0722 23.7171ZM62.3464 28.0738C61.9911 28.3481 61.0018 28.7683 59.9563 28.0559L59.0119 29.4418C60.8595 30.7008 62.6622 29.9487 63.3712 29.4013L62.3464 28.0738ZM59.9561 28.0558C58.3417 26.9564 58.2444 25.0302 58.1211 24.202L56.4623 24.449C56.5489 25.0306 56.669 27.8462 59.0121 29.4419L59.9561 28.0558ZM58.0779 24.6174C58.4757 23.5458 58.6969 22.8358 59.0037 21.8666L57.4049 21.3604C57.0971 22.3324 56.8873 23.0057 56.5056 24.0337L58.0779 24.6174ZM59.0037 21.8666C59.2982 20.9366 60.4992 17.33 60.7404 14.8319L59.071 14.6708C58.8512 16.9485 57.725 20.3492 57.4049 21.3604L59.0037 21.8666ZM60.7403 14.8325C60.9346 12.8342 60.9581 10.6366 60.6917 8.36093L59.026 8.55593C59.2768 10.698 59.2553 12.7748 59.0711 14.6702L60.7403 14.8325ZM60.6917 8.3612C60.6437 7.9496 60.5521 6.1403 59.6649 4.77192L58.2577 5.68427C58.8808 6.64536 58.9578 7.97216 59.026 8.55567L60.6917 8.3612ZM59.6648 4.77184C59.2322 4.10474 58.5902 3.80331 58.109 3.66648C57.8645 3.59695 57.6433 3.56425 57.4775 3.54861C57.3939 3.54072 57.3227 3.53701 57.2677 3.53529C57.2402 3.53444 57.2168 3.53409 57.1983 3.53396C57.182 3.53384 57.1639 3.53391 57.1662 3.53391V5.211C57.1842 5.211 57.3967 5.20752 57.6503 5.27961C57.9065 5.35246 58.1245 5.47885 58.2577 5.68435L59.6648 4.77184ZM57.1662 3.53391C56.56 3.53391 56.0426 3.7923 55.6378 4.21363L56.8471 5.37561C56.9819 5.23531 57.0791 5.211 57.1662 5.211V3.53391ZM55.6358 4.21566C55.2928 4.57507 55.0095 5.00789 54.7821 5.50048L56.3048 6.20336C56.4672 5.85163 56.6524 5.57958 56.849 5.37359L55.6358 4.21566ZM54.7821 5.50048C54.5623 5.97672 54.3883 6.48759 54.2555 7.02431L55.8834 7.42739C55.9941 6.98032 56.1349 6.57146 56.3048 6.20336L54.7821 5.50048ZM54.2546 7.02795C54.1281 7.54867 54.0383 8.0351 53.9886 8.48509L55.6555 8.66924C55.6958 8.30505 55.7709 7.89061 55.8843 7.42375L54.2546 7.02795ZM53.9896 8.47608C53.8679 9.47833 53.7817 10.4175 53.7355 11.2941L55.4102 11.3823C55.454 10.5515 55.5364 9.65114 55.6545 8.67825L53.9896 8.47608ZM53.7355 11.2941C53.6898 12.1618 53.6669 13.0115 53.6669 13.8411H55.3439C55.3439 13.0423 55.366 12.2221 55.4102 11.3823L53.7355 11.2941ZM53.6669 13.8411C53.6669 14.862 53.7012 16.0007 53.7693 17.2581L55.4439 17.1674C55.3771 15.9333 55.3439 14.8255 55.3439 13.8411H53.6669ZM53.7693 17.2581C53.8381 18.53 53.9718 19.8841 54.1714 21.3217L55.8325 21.0911C55.6386 19.6941 55.5099 18.387 55.4439 17.1674L53.7693 17.2581ZM54.1714 21.3215C54.2937 22.2043 54.4482 23.1093 54.6288 24.0307L56.2746 23.7082C56.0991 22.8127 55.95 21.9386 55.8326 21.0912L54.1714 21.3215ZM54.7008 23.4962C54.555 23.7894 54.4455 24.0433 54.2972 24.3033C54.2283 24.424 54.1671 24.5159 54.114 24.5809C54.0578 24.6498 54.0364 24.6567 54.057 24.6452L54.8751 26.1092C55.3055 25.8687 55.587 25.427 55.754 25.1341C55.9322 24.8216 56.1048 24.4394 56.2026 24.2427L54.7008 23.4962ZM54.0569 24.6452C53.653 24.871 53.3984 24.922 53.2469 24.9137C53.134 24.9076 53.0003 24.8666 52.8205 24.6611L51.5582 25.7653C51.9819 26.2496 52.5162 26.5535 53.1556 26.5883C53.7564 26.6211 54.3385 26.4091 54.8752 26.1091L54.0569 24.6452ZM52.8208 24.6614C52.2983 24.0636 52.1276 23.0962 52.0152 22.3837L50.3586 22.645C50.4561 23.2631 50.6639 24.742 51.558 25.765L52.8208 24.6614ZM52.0149 22.3815C51.9283 21.8424 51.5042 20.2567 51.3114 19.5986L49.702 20.0701C49.899 20.7426 50.2918 22.2289 50.359 22.6472L52.0149 22.3815ZM51.3114 19.5986C51.2266 19.309 50.99 18.3226 50.4628 17.3937C49.9326 16.4595 49.0189 15.4235 47.5127 15.2331L47.3023 16.8969C48.0615 16.9929 48.5999 17.509 49.0043 18.2215C49.4116 18.9393 49.5919 19.6943 49.702 20.0701L51.3114 19.5986ZM47.5124 15.233C46.7409 15.1357 45.812 15.3065 44.9809 15.6433C44.1473 15.9812 43.2933 16.5343 42.7467 17.3135L44.1196 18.2767C44.4217 17.846 44.9647 17.4595 45.6109 17.1976C46.2596 16.9347 46.8935 16.8453 47.3025 16.8969L47.5124 15.233ZM42.74 17.3231C42.4762 17.7105 42.1716 18.1249 41.9422 18.7121C41.7115 19.3025 41.5679 20.0274 41.4983 21.0894L43.1718 21.199C43.2353 20.2293 43.3597 19.6924 43.5042 19.3225C43.65 18.9495 43.8279 18.7052 44.1262 18.2671L42.74 17.3231ZM41.4983 21.0896C41.3594 23.2193 42.2714 25.2454 42.6707 25.9466L44.1281 25.1168C43.8041 24.5477 43.0634 22.8611 43.1719 21.1988L41.4983 21.0896ZM43.465 24.6957C43.3424 24.6861 43.0426 24.5653 42.6983 24.0632C42.3702 23.5846 42.0762 22.8552 41.9417 21.9083L40.2813 22.1441C40.4447 23.2949 40.814 24.2806 41.3151 25.0114C41.8 25.7188 42.4952 26.3019 43.3338 26.3677L43.465 24.6957ZM41.9419 21.9097C41.8639 21.3537 41.6195 20.5264 41.433 19.8876L39.8231 20.3578C40.0263 21.0534 40.2242 21.7376 40.2811 22.1428L41.9419 21.9097ZM41.4328 19.887C41.3727 19.682 41.1681 18.5958 40.7135 17.6514C40.2443 16.6768 39.3842 15.5552 37.8394 15.3611L37.6304 17.0251C38.3511 17.1157 38.84 17.6262 39.2024 18.3789C39.5793 19.1618 39.6885 19.8981 39.8233 20.3584L41.4328 19.887ZM37.8398 15.3612C37.0683 15.2639 36.1395 15.4346 35.3084 15.7715C34.4748 16.1094 33.6208 16.6624 33.0741 17.4417L34.447 18.4049C34.7492 17.9741 35.2921 17.5877 35.9384 17.3258C36.5871 17.0628 37.221 16.9735 37.63 17.0251L37.8398 15.3612ZM33.068 17.4506C32.8037 17.8378 32.4992 18.2519 32.2696 18.8397C32.0389 19.4302 31.8953 20.1556 31.8258 21.2175L33.4993 21.3271C33.5628 20.3574 33.6871 19.82 33.8317 19.4498C33.9774 19.077 34.1553 18.8324 34.4532 18.396L33.068 17.4506ZM31.8258 21.2177C31.7274 22.7246 32.0159 24.0134 32.2775 24.7467L33.8571 24.1832C33.6615 23.635 33.4178 22.5754 33.4993 21.327L31.8258 21.2177ZM32.4018 23.9549C32.1487 24.285 31.8916 24.609 31.6202 24.929L32.8992 26.0138C33.1936 25.6666 33.4687 25.3197 33.7328 24.9751L32.4018 23.9549ZM31.6197 24.9296C31.1948 25.4314 30.7685 25.8592 30.3436 26.2176L31.425 27.4995C31.9295 27.0739 32.4214 26.5781 32.8996 26.0132L31.6197 24.9296ZM30.3449 26.2165C29.9757 26.5267 29.7028 26.608 29.5089 26.608V28.2851C30.2182 28.2851 30.8598 27.9743 31.4237 27.5005L30.3449 26.2165ZM29.5089 26.608C29.2588 26.608 29.0227 26.5495 28.7861 26.4236L27.9982 27.9041C28.4699 28.1551 28.9758 28.2851 29.5089 28.2851V26.608ZM28.7861 26.4236C28.4958 26.2691 28.2135 26.0715 27.9359 25.8229L26.8172 27.0724C27.1879 27.4043 27.5802 27.6816 27.9982 27.9041L28.7861 26.4236ZM27.9359 25.8229C27.6472 25.5644 27.3665 25.2691 27.0926 24.9317L25.7904 25.9885C26.1162 26.3898 26.4576 26.7504 26.8172 27.0724L27.9359 25.8229ZM27.0897 24.928C26.7834 24.5549 26.4744 24.1885 26.161 23.8291L24.897 24.9313C25.1982 25.2767 25.4963 25.6303 25.7934 25.9921L27.0897 24.928ZM26.161 23.8291C25.8332 23.4532 25.4924 23.1045 25.143 22.779L23.9999 24.0062C24.3101 24.2951 24.6101 24.6023 24.897 24.9313L26.161 23.8291ZM25.1394 22.7757C24.7553 22.4221 24.3416 22.1316 23.8927 21.9188L23.1741 23.4341C23.4485 23.5642 23.7243 23.7525 24.0035 24.0095L25.1394 22.7757ZM24.1379 23.2575C24.7492 22.6217 25.3128 22.003 25.8284 21.4016L24.5551 20.3101C24.0625 20.8847 23.5206 21.4797 22.9289 22.0953L24.1379 23.2575ZM25.8284 21.4016C26.3225 20.8251 26.8291 20.2658 27.3517 19.7217L26.1422 18.5599C25.5968 19.1277 25.069 19.7105 24.5551 20.3101L25.8284 21.4016ZM27.3527 19.7206C27.8595 19.1912 28.415 18.6808 29.013 18.1916L27.9512 16.8935C27.305 17.4221 26.6988 17.9784 26.1412 18.561L27.3527 19.7206ZM29.0121 18.1924C29.5918 17.7196 30.2822 17.2565 31.0897 16.8071L30.2741 15.3417C29.3952 15.8308 28.6204 16.3478 27.9521 16.8927L29.0121 18.1924ZM31.0498 16.828C31.2846 16.7133 31.5091 16.5412 31.6717 16.2911C31.8361 16.0382 31.9027 15.7583 31.9027 15.4864H30.2256C30.2256 15.4866 30.2257 15.4736 30.2317 15.4515C30.238 15.4286 30.2491 15.4025 30.2656 15.3771C30.3007 15.323 30.3341 15.3111 30.3141 15.3208L31.0498 16.828ZM31.9027 15.4864C31.9027 15.0598 31.7322 14.6898 31.4566 14.4017L30.2446 15.5609C30.2547 15.5715 30.2475 15.5669 30.2386 15.5459C30.2343 15.5359 30.2308 15.5247 30.2285 15.5132C30.2262 15.5017 30.2256 15.4924 30.2256 15.4864H31.9027ZM31.4566 14.4017C31.1268 14.057 30.6982 13.9204 30.2753 13.9204V15.5974C30.3098 15.5974 30.3134 15.6027 30.2981 15.5968C30.2906 15.5939 30.2808 15.5891 30.2702 15.5821C30.2596 15.575 30.2509 15.5675 30.2446 15.5609L31.4566 14.4017ZM30.2753 13.9204C30.0415 13.9204 29.8196 13.968 29.6166 14.0389L30.1695 15.6222C30.2364 15.5988 30.2693 15.5974 30.2753 15.5974V13.9204ZM29.5051 14.0871C28.6233 14.5474 27.8387 15.0507 27.1642 15.6025L28.226 16.9006C28.7957 16.4347 29.4802 15.9919 30.2811 15.5739L29.5051 14.0871ZM27.1651 15.6017C26.516 16.1311 25.9155 16.6837 25.3644 17.2577L26.5742 18.4192C27.0762 17.8963 27.6263 17.3897 28.2251 16.9014L27.1651 15.6017ZM25.3644 17.2577C24.8243 17.8203 24.3063 18.3993 23.8127 18.9967L25.1054 20.0651C25.5711 19.5015 26.0613 18.9535 26.5742 18.4192L25.3644 17.2577ZM23.8137 18.9955C23.349 19.5557 22.8384 20.117 22.2828 20.6831L23.4798 21.8578C24.0635 21.263 24.606 20.6671 25.1044 20.0663L23.8137 18.9955ZM23.7186 21.316C23.7939 19.9328 23.8578 18.5066 23.9104 17.0354L22.2344 16.9754C22.1821 18.4368 22.1187 19.8527 22.044 21.2249L23.7186 21.316ZM23.9104 17.0355C23.9633 15.5592 23.9897 13.9244 23.9897 12.1298H22.3126C22.3126 13.9085 22.2865 15.5229 22.2344 16.9754L23.9104 17.0355ZM23.9897 12.1298C23.9897 11.0442 23.9784 10.0495 23.9557 9.14785L22.2791 9.19005C22.3014 10.0751 22.3126 11.0555 22.3126 12.1298H23.9897ZM23.9557 9.14785C23.9332 8.25425 23.9107 7.37761 23.8882 6.51606L22.2117 6.55983C22.2342 7.42087 22.2567 8.29699 22.2791 9.19005L23.9557 9.14785ZM23.8882 6.51606C23.8658 5.65772 23.8471 4.76715 23.8322 3.84621L22.1553 3.87343C22.1703 4.79947 22.1891 5.69558 22.2117 6.55983L23.8882 6.51606ZM23.8322 3.84621C23.8173 2.92812 23.8098 1.9056 23.8098 0.782147H22.1327C22.1327 1.91277 22.1402 2.94454 22.1553 3.87343L23.8322 3.84621ZM23.8098 0.782147C23.8098 0.362031 23.6868 -0.110127 23.2866 -0.4472L22.2062 0.835457C22.1875 0.819738 22.1708 0.801332 22.1571 0.781722C22.1436 0.762354 22.1358 0.745798 22.1318 0.735344C22.1244 0.716037 22.1327 0.725534 22.1327 0.782147H23.8098ZM23.2819 -0.45118C23.0131 -0.674171 22.6703 -0.832881 22.2723 -0.832881V0.844203C22.2435 0.844203 22.2194 0.838142 22.2044 0.83215C22.191 0.826791 22.1936 0.825068 22.2109 0.839438L23.2819 -0.45118ZM22.2723 -0.832881C21.8735 -0.832881 21.5295 -0.675181 21.2572 -0.436882L22.3617 0.825139C22.374 0.814371 22.3702 0.820733 22.349 0.829328C22.3261 0.838651 22.2985 0.844203 22.2723 0.844203V-0.832881ZM21.2532 -0.433288C20.8694 -0.0930453 20.7573 0.371984 20.7573 0.782147H22.4344C22.4344 0.719866 22.4431 0.70601 22.4372 0.722054C22.4339 0.731013 22.427 0.746825 22.4142 0.766097C22.4012 0.785658 22.3848 0.80473 22.3658 0.821545L21.2532 -0.433288ZM20.7573 0.782147C20.7573 1.91277 20.7649 2.94454 20.7799 3.87343L22.4568 3.84621C22.4419 2.92812 22.4344 1.9056 22.4344 0.782147H20.7573ZM20.7799 3.8734C20.795 4.80137 20.8138 5.6956 20.8363 6.55983L22.5128 6.51606C22.4904 5.6577 22.4717 4.76903 22.4568 3.84624L20.7799 3.8734ZM20.8363 6.55983C20.8588 7.42084 20.8813 8.29885 20.9038 9.1901L22.5803 9.14781C22.5578 8.25615 22.5353 7.37764 22.5128 6.51606L20.8363 6.55983ZM20.9038 9.19005C20.926 10.0751 20.9372 11.0536 20.9372 12.1298H22.6143C22.6143 11.0423 22.603 10.0495 22.5803 9.14785L20.9038 9.19005ZM20.9372 12.1298C20.9372 13.8453 20.9148 15.4157 20.8702 16.8378L22.5464 16.8904C22.5917 15.4477 22.6143 13.8595 22.6143 12.1298H20.9372ZM20.8702 16.8378C20.8254 18.2656 20.7657 19.6401 20.6912 20.9632L22.3656 21.0575C22.441 19.7195 22.5013 18.3311 22.5464 16.8904L20.8702 16.8378ZM20.6912 20.9641L20.6031 22.5586L22.2776 22.6511L22.3657 21.0566L20.6912 20.9641ZM21.454 21.7664C21.3366 21.7645 21.2156 21.7627 21.0763 21.759L21.0325 23.4355C21.1817 23.4394 21.3117 23.4414 21.4268 23.4432L21.454 21.7664ZM21.0744 21.759C20.7618 21.7515 20.3425 21.7402 19.8184 21.7234L19.7644 23.3996C20.2934 23.4166 20.7173 23.428 21.0343 23.4356L21.0744 21.759ZM19.7914 21.7229C19.5201 21.7229 19.2383 21.7309 18.9499 21.7491L19.0552 23.4228C19.3064 23.4071 19.553 23.4 19.7914 23.4V21.7229ZM18.9558 21.7487C18.6524 21.7657 18.343 21.8014 18.0318 21.8529L18.3056 23.5075C18.5641 23.4647 18.813 23.4364 19.0493 23.4232L18.9558 21.7487ZM18.9834 22.4815C18.767 21.5942 18.4201 20.7896 17.9413 20.0758L16.5485 21.0101C16.9092 21.5478 17.1807 22.168 17.354 22.8789L18.9834 22.4815ZM17.9393 20.0729C17.7301 19.7638 17.4858 19.4653 17.2077 19.175L15.9968 20.3353C16.217 20.5652 16.4 20.7907 16.5505 21.013L17.9393 20.0729ZM17.2056 19.1728C16.9054 18.8618 16.5631 18.5881 16.1785 18.3565L15.3132 19.7931C15.5732 19.9497 15.8006 20.1321 15.9989 20.3375L17.2056 19.1728ZM16.1798 18.3572C15.7907 18.122 15.3637 17.9354 14.9003 17.7915L14.4029 19.3931C14.7527 19.5018 15.0528 19.6356 15.312 19.7924L16.1798 18.3572ZM14.8969 17.7905C14.3987 17.6381 13.8554 17.5653 13.2762 17.5653V19.2424C13.7164 19.2424 14.0912 19.2978 14.4063 19.3942L14.8969 17.7905ZM13.2762 17.5653C12.5186 17.5653 11.8252 17.7867 11.2515 18.2648L12.3253 19.5531C12.5611 19.3565 12.8608 19.2424 13.2762 19.2424V17.5653ZM11.253 18.2636C10.7427 18.687 10.3396 19.2239 10.0306 19.8564L11.5375 20.5925C11.757 20.1432 12.0209 19.8056 12.3238 19.5543L11.253 18.2636ZM10.0306 19.8564C9.72495 20.4822 9.51588 21.1772 9.39243 21.9347L11.0477 22.2045C11.1491 21.5823 11.3148 21.0485 11.5375 20.5925L10.0306 19.8564ZM9.39243 21.9347C9.27285 22.6683 9.21287 23.4014 9.21287 24.137H10.89C10.89 23.4932 10.9424 22.8504 11.0477 22.2045L9.39243 21.9347ZM9.21287 24.137C9.21287 24.4664 9.22702 24.7826 9.2487 25.0879L10.9216 24.9691C10.902 24.6939 10.89 24.4183 10.89 24.137H9.21287ZM9.27851 24.7994C9.27079 24.8266 9.2542 24.8828 9.23973 24.9386L10.8631 25.3596C10.8711 25.3287 10.877 25.3096 10.8918 25.2576L9.27851 24.7994ZM9.2361 24.9531C8.86934 26.4787 8.06883 27.7414 7.36243 28.3721L8.47937 29.6231C9.47438 28.7348 10.4315 27.1555 10.8667 25.3451L9.2361 24.9531ZM7.36232 28.3722C6.94363 28.7462 6.36842 28.825 5.84429 28.4403L4.85207 29.7924C6.07432 30.6893 7.52655 30.4741 8.47948 29.623L7.36232 28.3722ZM5.84446 28.4404C5.24406 27.9996 4.89967 27.2485 4.70258 26.3677C4.60647 25.9383 4.55205 25.5085 4.51307 25.1154C4.47758 24.7574 4.449 24.3457 4.41076 24.0864L2.75161 24.331C2.7827 24.5419 2.79886 24.8239 2.84417 25.2809C2.886 25.7026 2.94846 26.2088 3.06597 26.734C3.2961 27.7624 3.76588 28.9949 4.8519 29.7923L5.84446 28.4404ZM4.36729 24.5005C4.76102 23.4401 5.11582 22.4173 5.4295 21.4326L3.83153 20.9236C3.52685 21.8801 3.18085 22.8777 2.79508 23.9168L4.36729 24.5005ZM5.42994 21.4312C5.74366 20.4403 6.01412 19.4549 6.23703 18.4749L4.60173 18.1029C4.38992 19.034 4.13197 19.9747 3.83108 20.925L5.42994 21.4312ZM6.23703 18.4749C6.46142 17.4885 6.63134 16.4839 6.749 15.4596L5.08287 15.2682C4.97193 16.234 4.81207 17.1782 4.60173 18.1029L6.23703 18.4749ZM6.74918 15.458C6.8655 14.4285 6.92312 13.3433 6.92312 12.2033H5.24604C5.24604 13.2872 5.19123 14.3091 5.0827 15.2697L6.74918 15.458ZM6.92312 12.2033C6.92312 11.7762 6.91933 11.3398 6.91176 10.8961L5.23492 10.9247C5.24233 11.3592 5.24604 11.7861 5.24604 12.2033H6.92312ZM6.91176 10.8961C6.90402 10.4427 6.88468 9.98433 6.85386 9.51539L5.18039 9.62539C5.20952 10.0686 5.22766 10.4998 5.23492 10.9247L6.91176 10.8961ZM6.85286 9.50186C6.80865 8.96269 6.77561 8.44912 6.75364 7.95911L5.07824 8.03426C5.10123 8.5469 5.13565 9.08121 5.18139 9.63892L6.85286 9.50186ZM6.75364 7.95911C6.72922 7.41463 6.66373 6.89675 6.55468 6.4053L4.91742 6.76859C5.00325 7.1554 5.05769 7.57609 5.07824 8.03426L6.75364 7.95911ZM6.55468 6.4053C6.43871 5.88261 6.24789 5.39698 5.974 4.95668L4.54996 5.84252C4.71454 6.1071 4.83853 6.41303 4.91742 6.76859L6.55468 6.4053ZM5.974 4.95668C5.6639 4.45816 5.21238 4.06585 4.66459 3.76179L3.85067 5.22813C4.20604 5.42539 4.4216 5.63617 4.54996 5.84252L5.974 4.95668ZM4.56426 3.71449C4.43446 3.6635 4.30452 3.61574 4.17949 3.57705L3.68368 5.17917C3.75352 5.20078 3.84094 5.23219 3.95099 5.27542L4.56426 3.71449ZM4.19352 3.58153C4.03395 3.52906 3.8578 3.49245 3.673 3.49245V5.16953C3.66366 5.16953 3.65659 5.16907 3.652 5.16863C3.64741 5.16819 3.64503 5.16776 3.645 5.16776C3.64497 5.16775 3.64702 5.16812 3.65123 5.16921C3.65544 5.1703 3.66156 5.17203 3.66965 5.17469L4.19352 3.58153ZM3.673 3.49245C3.06684 3.49245 2.54941 3.75083 2.14457 4.17217L3.35387 5.33415C3.48868 5.19385 3.58586 5.16953 3.673 5.16953V3.49245ZM2.14263 4.17419C1.79958 4.53361 1.51633 4.96643 1.28895 5.45902L2.81163 6.1619C2.974 5.81016 3.1592 5.53811 3.35581 5.33212L2.14263 4.17419ZM1.28895 5.45902C1.06911 5.93526 0.895153 6.44613 0.762259 6.98285L2.39018 7.38593C2.50088 6.93885 2.64172 6.52999 2.81163 6.1619L1.28895 5.45902ZM0.761366 6.98649C0.634902 7.50721 0.545118 7.99364 0.495408 8.44363L2.16235 8.62778C2.20258 8.26359 2.27769 7.84914 2.39107 7.38229L0.761366 6.98649ZM0.496452 8.43462C0.374747 9.43687 0.28846 10.376 0.242283 11.2526L1.91704 11.3409C1.96081 10.51 2.04316 9.60968 2.16131 8.63679L0.496452 8.43462ZM0.242283 11.2526C0.196575 12.1204 0.173665 12.97 0.173665 13.7996H1.85075C1.85075 13.0008 1.87281 12.1806 1.91704 11.3409L0.242283 11.2526ZM0.173665 13.7996C0.173665 14.8205 0.207991 15.9592 0.276077 17.2166L1.95071 17.1259C1.88388 15.8918 1.85075 14.784 1.85075 13.7996H0.173665ZM0.276077 17.2166C0.344951 18.4886 0.478621 19.8426 0.678187 21.2802L2.33934 21.0496C2.14541 19.6526 2.01675 18.3455 1.95071 17.1259L0.276077 17.2166ZM0.678038 21.2791C0.860356 22.6051 0.982864 24.4211 1.3454 26.0019L2.98004 25.627C2.63803 24.1357 2.54692 22.5593 2.33949 21.0507L0.678038 21.2791ZM1.3454 26.0019C1.52386 26.78 1.84808 28.063 2.46628 29.2108C3.07887 30.3482 4.07507 31.5219 5.66193 31.7605L5.91136 30.1021C5.09227 29.9789 4.45264 29.3621 3.94282 28.4155C3.43861 27.4794 3.15385 26.3848 2.98004 25.627L1.3454 26.0019ZM5.66188 31.7605C6.52515 31.8904 7.35253 31.7432 8.0247 31.5045C8.6876 31.2691 9.26457 30.9213 9.62535 30.5756L8.46501 29.3647C8.3105 29.5127 7.95338 29.7501 7.46342 29.9241C6.98274 30.0949 6.4385 30.1814 5.91141 30.1021L5.66188 31.7605ZM9.62514 30.5758C10.5379 29.7017 11.0854 28.9561 11.4424 28.275L9.95708 27.4963C9.69953 27.9876 9.27264 28.5913 8.46522 29.3645L9.62514 30.5758ZM9.92596 28.2088C10.0554 28.5188 10.206 28.8308 10.3879 29.1245L11.8136 28.2413C11.692 28.045 11.5802 27.818 11.4735 27.5626L9.92596 28.2088ZM10.3881 29.1248C10.8002 29.7893 11.3155 30.3344 11.943 30.739L12.8518 29.3294C12.4562 29.0744 12.1096 28.7186 11.8134 28.2409L10.3881 29.1248ZM11.9418 30.7382C12.6035 31.1664 13.3618 31.3665 14.1775 31.3665V29.6894C13.6441 29.6894 13.2107 29.5617 12.853 29.3302L11.9418 30.7382ZM14.1775 31.3665C15.0223 31.3665 15.7996 31.1222 16.4749 30.6315L15.4891 29.2748C15.1112 29.5493 14.6818 29.6894 14.1775 29.6894V31.3665ZM16.4765 30.6304C17.0917 30.1812 17.6053 29.6256 18.0208 28.9694L16.6039 28.0722C16.2962 28.5581 15.9254 28.9562 15.4875 29.2759L16.4765 30.6304ZM18.0208 28.9694C18.427 28.328 18.736 27.6311 18.9517 26.8864L17.3408 26.4198C17.1667 27.0207 16.921 27.5715 16.6039 28.0722L18.0208 28.9694ZM18.9517 26.8864C19.1636 26.1546 19.2789 25.4474 19.2789 24.7741H17.6019C17.6019 25.2579 17.5186 25.806 17.3408 26.4198L18.9517 26.8864ZM19.2789 24.7741V24.4574H17.6019V24.7741H19.2789ZM19.2789 24.4574C19.2789 24.3145 19.2684 24.1708 19.2487 24.0269L17.5872 24.2547C17.5974 24.3294 17.6019 24.3968 17.6019 24.4574H19.2789ZM18.5117 24.9741C18.782 24.9437 19.0358 24.9223 19.2691 24.9081L19.167 23.2341C18.9056 23.25 18.6234 23.2739 18.3242 23.3075L18.5117 24.9741ZM19.2687 24.9081C19.5065 24.8937 19.7324 24.8851 19.9507 24.8851V23.208C19.6893 23.208 19.428 23.2183 19.1674 23.2341L19.2687 24.9081ZM19.9507 24.8851C20.428 24.8851 20.8649 24.8889 21.2655 24.8963L21.2966 23.2195C20.884 23.2118 20.4365 23.208 19.9507 23.208V24.8851ZM21.2811 24.8964C21.2805 24.8964 21.2826 24.8964 21.2896 24.8967C21.2981 24.8971 21.3068 24.8976 21.3252 24.8987L21.4243 23.2246C21.3989 23.2231 21.3426 23.2193 21.2811 23.2193V24.8964ZM20.5376 24.0143C20.4715 25.1811 20.4206 26.3685 20.3848 27.582L22.0612 27.6315C22.0966 26.4326 22.1468 25.2603 22.212 24.109L20.5376 24.0143ZM20.3848 27.583C20.3471 28.9154 20.3282 30.384 20.3282 31.9886H22.0053C22.0053 30.3968 22.024 28.9442 22.0612 27.6305L20.3848 27.583ZM20.3282 31.9886C20.3282 32.1942 20.3363 32.4923 20.3514 32.8788L22.0272 32.8135C22.0123 32.431 22.0053 32.1599 22.0053 31.9886H20.3282ZM20.3514 32.8788C20.3676 33.2965 20.4084 33.7084 20.4736 34.1181L22.1298 33.8546C22.0751 33.5105 22.0409 33.1647 22.0272 32.8135L20.3514 32.8788ZM20.4736 34.1181C20.5427 34.5528 20.6539 34.9555 20.815 35.3223L22.3506 34.6482C22.2568 34.4345 22.1806 34.1738 22.1298 33.8546L20.4736 34.1181ZM20.8168 35.3265C21.015 35.7713 21.421 36.2591 22.1131 36.2591V34.5821C22.1488 34.5821 22.1926 34.5882 22.2387 34.6048C22.2847 34.6215 22.3202 34.6439 22.3444 34.6639C22.3884 34.7 22.3801 34.7143 22.3487 34.644L20.8168 35.3265ZM22.1131 36.2591C22.5119 36.2591 22.8558 36.1014 23.1281 35.8631L22.0236 34.6011C22.0113 34.6119 22.0152 34.6055 22.0364 34.5969C22.0593 34.5876 22.0869 34.5821 22.1131 34.5821V36.2591ZM23.1322 35.8595C23.4904 35.542 23.6299 35.1135 23.6299 34.6912H21.9528C21.9528 34.7229 21.9479 34.7175 21.9587 34.6907C21.964 34.6773 21.9722 34.6615 21.9837 34.6451C21.9952 34.6288 22.0077 34.6152 22.0196 34.6047L23.1322 35.8595ZM23.6299 34.6912C23.6299 34.5729 23.6229 34.3987 23.568 34.2259L21.9698 34.7344C21.9618 34.7091 21.9575 34.6895 21.9552 34.6779C21.9529 34.666 21.9521 34.6587 21.9519 34.657C21.9517 34.6547 21.9528 34.6648 21.9528 34.6912H23.6299ZM23.5732 34.2432C23.4695 33.891 23.4156 33.5732 23.4023 33.2894L21.727 33.3679C21.7474 33.804 21.8284 34.2551 21.9645 34.7171L23.5732 34.2432ZM23.4025 33.2937C23.3881 32.9494 23.3807 32.5153 23.3807 31.9886H21.7036C21.7036 32.5287 21.7112 32.9878 21.7268 33.3635L23.4025 33.2937ZM23.3807 31.9886C23.3807 30.4763 23.3993 29.0862 23.4365 27.8198L21.7602 27.7706C21.7224 29.0561 21.7036 30.4628 21.7036 31.9886H23.3807ZM23.4365 27.8198C23.4739 26.5492 23.5224 25.3129 23.582 24.1127L21.907 24.0295C21.8468 25.2416 21.7978 26.4893 21.7602 27.7706L23.4365 27.8198ZM22.4861 24.8688C22.7614 24.958 23.0251 25.1065 23.2774 25.3258L24.3778 24.0602C23.9667 23.7028 23.5071 23.4367 23.003 23.2734L22.4861 24.8688ZM23.2736 25.3225C23.5731 25.5861 23.8656 25.8818 24.1473 26.2118L25.4228 25.123C25.09 24.7331 24.7417 24.3804 24.3816 24.0635L23.2736 25.3225ZM24.1473 26.2118C24.4514 26.568 24.761 26.9373 25.0726 27.3159L26.3676 26.2503C26.0496 25.8638 25.7334 25.4868 25.4228 25.123L24.1473 26.2118ZM25.0713 27.3144C25.4189 27.7389 25.7971 28.1212 26.2029 28.4672L27.291 27.191C26.9585 26.9075 26.6509 26.5963 26.3689 26.2519L25.0713 27.3144ZM26.2032 28.4675C26.6326 28.8333 27.1105 29.1333 27.6316 29.3682L28.3207 27.8393C27.9387 27.667 27.5958 27.4507 27.2907 27.1908L26.2032 28.4675ZM27.6316 29.3682C28.2066 29.6274 28.8364 29.7476 29.5089 29.7476V28.0705C29.0385 28.0705 28.6489 27.9872 28.3207 27.8393L27.6316 29.3682ZM29.5089 29.7476C30.2677 29.7476 30.9627 29.5106 31.6271 29.0898L30.7299 27.6729C30.2813 27.957 29.8931 28.0705 29.5089 28.0705V29.7476ZM31.6271 29.0898C32.2393 28.7021 32.8116 28.2394 33.3419 27.7019L32.1481 26.524C31.704 26.9741 31.2307 27.3557 30.7299 27.6729L31.6271 29.0898ZM33.3424 27.7013C33.7609 27.2765 34.1436 26.8334 34.5035 26.3834L33.1938 25.3359C32.8604 25.7528 32.5161 26.1503 32.1475 26.5246L33.3424 27.7013ZM33.0101 25.8596C33.0101 26.0006 33.0453 26.1154 33.0799 26.1948C33.0972 26.2347 33.1155 26.2683 33.1318 26.2952C33.1481 26.3222 33.1638 26.3446 33.177 26.3623C33.1903 26.3801 33.2023 26.3948 33.212 26.4061C33.2217 26.4175 33.2302 26.4268 33.2365 26.4335C33.2427 26.4402 33.2479 26.4456 33.2509 26.4487C33.2525 26.4503 33.2538 26.4516 33.2546 26.4524C33.255 26.4528 33.2553 26.4531 33.2555 26.4533C33.2557 26.4535 33.2559 26.4537 33.2559 26.4537C33.2564 26.4542 33.2542 26.452 33.2516 26.4494C33.2488 26.4465 33.2439 26.4414 33.2378 26.4349C33.2318 26.4285 33.2235 26.4194 33.214 26.4083C33.2045 26.3972 33.1927 26.3827 33.1796 26.3652C33.1666 26.3477 33.1511 26.3255 33.1349 26.2988C33.1187 26.2721 33.1006 26.2388 33.0833 26.1991C33.0489 26.1201 33.0139 26.0058 33.0139 25.8653H34.6909C34.6909 25.7244 34.6557 25.6095 34.6212 25.5301C34.6038 25.4902 34.5855 25.4566 34.5692 25.4297C34.5529 25.4028 34.5372 25.3803 34.524 25.3626C34.5108 25.3449 34.4987 25.3301 34.489 25.3188C34.4793 25.3074 34.4709 25.2981 34.4646 25.2914C34.4583 25.2847 34.4532 25.2794 34.4501 25.2763C34.4486 25.2747 34.4473 25.2734 34.4465 25.2726C34.4461 25.2722 34.4457 25.2718 34.4455 25.2716C34.4453 25.2714 34.4452 25.2712 34.4452 25.2712C34.4446 25.2707 34.4469 25.2729 34.4494 25.2756C34.4522 25.2784 34.4572 25.2835 34.4632 25.29C34.4693 25.2965 34.4775 25.3056 34.487 25.3167C34.4965 25.3278 34.5084 25.3423 34.5215 25.3598C34.5345 25.3772 34.55 25.3995 34.5662 25.4262C34.5823 25.4528 34.6005 25.4862 34.6178 25.5259C34.6521 25.6048 34.6872 25.7192 34.6872 25.8596H33.0101ZM33.1895 26.3788C33.3664 26.6072 33.7796 27.0213 34.3671 27.3743C34.9633 27.7324 35.7903 28.0579 36.7729 28.0148L36.6994 26.3393C36.1361 26.364 35.6337 26.1787 35.2307 25.9366C34.819 25.6893 34.5632 25.4136 34.5153 25.3517L33.1895 26.3788ZM36.7726 28.0148C37.6812 27.9753 38.322 27.8101 38.7872 27.6051C39.0198 27.5026 39.1984 27.3946 39.3364 27.2985C39.4042 27.2512 39.4595 27.2087 39.5003 27.1768C39.5281 27.1551 39.5294 27.154 39.5479 27.1396C39.5603 27.1299 39.5628 27.1281 39.5608 27.1296L38.5848 25.7658C38.4158 25.8867 38.3598 25.9608 38.1109 26.0704C37.8683 26.1773 37.4383 26.3072 36.6997 26.3393L36.7726 28.0148ZM39.5651 27.1264C39.7091 27.0221 39.9899 26.7874 40.2773 26.4739C40.5606 26.165 40.9007 25.7254 41.0969 25.21L39.5296 24.6133C39.4409 24.8461 39.2583 25.1038 39.0413 25.3405C38.8284 25.5727 38.6314 25.7319 38.5805 25.7689L39.5651 27.1264ZM39.5463 25.2506C39.6059 25.3856 39.6885 25.5057 39.7464 25.5854C39.8107 25.6739 39.883 25.764 39.948 25.8435C40.0939 26.0218 40.2003 26.1458 40.2754 26.2519L41.644 25.2827C41.5243 25.1136 41.3524 24.9115 41.2462 24.7817C41.1852 24.7072 41.1381 24.6476 41.1032 24.5996C41.0619 24.5428 41.0656 24.5395 41.0803 24.5727L39.5463 25.2506ZM40.2741 26.25C41.5371 28.0439 43.547 28.2267 45.0567 27.5919L44.4066 26.046C43.4691 26.4402 42.3648 26.3064 41.6454 25.2845L40.2741 26.25ZM45.0576 27.5916C45.1348 27.559 45.2077 27.5239 45.2476 27.5052L44.538 25.9857C44.473 26.016 44.4448 26.0299 44.4058 26.0463L45.0576 27.5916ZM44.5484 27.51C45.0728 27.7462 45.7177 27.9202 46.4491 27.8865L46.3721 26.2112C45.9568 26.2303 45.5748 26.1329 45.2372 25.9809L44.5484 27.51ZM46.447 27.8866C47.3556 27.8471 47.9964 27.682 48.4616 27.477C48.6942 27.3745 48.8728 27.2664 49.0108 27.1703C49.0786 27.1231 49.134 27.0806 49.1748 27.0487C49.2025 27.027 49.2038 27.0258 49.2223 27.0114C49.2347 27.0017 49.2373 27 49.2352 27.0014L48.2592 25.6376C48.0902 25.7586 48.0343 25.8326 47.7853 25.9423C47.5428 26.0492 47.1127 26.179 46.3742 26.2111L46.447 27.8866ZM49.2396 26.9983C49.3835 26.8939 49.6644 26.6592 49.9518 26.3458C50.235 26.0369 50.5752 25.5972 50.7714 25.0818L49.204 24.4852C49.1154 24.718 48.9327 24.9756 48.7157 25.2123C48.5028 25.4445 48.3058 25.6038 48.2549 25.6407L49.2396 26.9983ZM49.1957 25.0592C49.7791 26.7348 50.9839 27.4864 52.0486 27.7941C52.5684 27.9443 53.0525 27.99 53.416 27.9996C53.5991 28.0045 53.7543 28.0002 53.8704 27.9949C53.928 27.9923 53.9763 27.9893 54.0094 27.9874C54.0571 27.9845 54.0491 27.9854 54.0313 27.9854V26.3083C53.6021 26.3083 51.499 26.5743 50.7796 24.5078L49.1957 25.0592ZM53.7072 26.3735C53.6904 26.3805 53.6312 26.4054 53.5632 26.4511C53.5259 26.4777 53.4367 26.5556 53.3877 26.6092C53.3167 26.7079 53.2059 26.9978 53.1935 27.1875C53.2306 27.3968 53.4118 27.7124 53.5252 27.8159C53.6019 27.8675 53.736 27.932 53.7895 27.9501C53.8827 27.9781 53.9593 27.9828 53.9772 27.9839C54.0298 27.9873 54.0713 27.9848 54.0798 27.9843C54.0959 27.9834 54.1088 27.9822 54.1161 27.9815C54.1413 27.979 54.1629 27.9757 54.1705 27.9745C54.1926 27.9711 54.2172 27.9668 54.2421 27.9621C54.2936 27.9524 54.3629 27.938 54.4452 27.9185C54.6092 27.8796 54.8357 27.8178 55.0838 27.7274C55.5349 27.5631 56.2433 27.2398 56.6555 26.6316L55.2672 25.6907C55.1697 25.8346 54.9019 26.0088 54.5097 26.1517C54.3363 26.2149 54.1744 26.2591 54.0582 26.2867C54.0005 26.3004 53.9568 26.3093 53.9317 26.314C53.9183 26.3165 53.9137 26.3172 53.9169 26.3167C53.918 26.3165 53.921 26.3161 53.9253 26.3155C53.9285 26.3151 53.938 26.3138 53.9508 26.3125C53.957 26.3119 53.9691 26.3108 53.9845 26.3099C53.9923 26.3095 54.0332 26.307 54.0854 26.3103C54.1033 26.3115 54.1797 26.3161 54.2728 26.3441C54.3262 26.3622 54.4603 26.4267 54.5369 26.4783C54.6504 26.5817 54.8316 26.8973 54.8686 27.1066C54.8562 27.2963 54.7454 27.5862 54.6744 27.6848C54.6255 27.7384 54.5363 27.8162 54.499 27.8428C54.4312 27.8885 54.3721 27.9133 54.3554 27.9202L53.7072 26.3735ZM55.152 26.3804C55.5627 27.8972 56.379 29.8781 58.2016 31.0664L59.1176 29.6616C57.8185 28.8145 57.147 27.3314 56.7707 25.942L55.152 26.3804ZM58.2021 31.0667C58.7859 31.4468 59.4733 31.6756 60.0984 31.7916C60.7155 31.9061 61.3544 31.9258 61.8546 31.8193L61.5057 30.179C61.2883 30.2252 60.8845 30.2317 60.4044 30.1426C59.9324 30.0551 59.4683 29.8899 59.1171 29.6613L58.2021 31.0667ZM61.8528 31.8197C64.0562 31.3563 65.2194 29.9081 65.7686 29.0806L64.3712 28.1532C63.9272 28.8222 63.0855 29.8467 61.5076 30.1786L61.8528 31.8197ZM65.7688 29.0802C66.4537 28.0469 66.8313 27.1087 67.0073 26.2692L65.366 25.925C65.2385 26.533 64.9527 27.2759 64.3709 28.1536L65.7688 29.0802ZM65.4994 26.5775C66.0422 27.3542 66.7128 28.0151 67.5316 28.5392L68.4357 27.1266C67.8117 26.7272 67.298 26.2234 66.874 25.6167L65.4994 26.5775ZM67.4735 28.4984C67.9054 28.8295 68.3816 29.0654 68.8987 29.1948L69.3059 27.5679C69.0248 27.4975 68.7552 27.3677 68.4938 27.1674L67.4735 28.4984ZM68.8951 29.1939C69.368 29.3145 69.8552 29.3709 70.3576 29.3688L70.3504 27.6917C69.9796 27.6933 69.6348 27.6518 69.3095 27.5688L68.8951 29.1939ZM70.3564 29.3688C71.0986 29.3667 71.8178 29.2586 72.5086 29.042L72.0069 27.4417C71.4835 27.6058 70.9323 27.69 70.3516 27.6917L70.3564 29.3688ZM72.5086 29.042C73.1513 28.8405 73.7853 28.5947 74.4063 28.3004L73.6882 26.7849C73.1399 27.0447 72.5784 27.2625 72.0069 27.4417L72.5086 29.042ZM74.4034 28.3018C74.9984 28.0226 75.5868 27.7343 76.1704 27.4389L75.4131 25.9426C74.8424 26.2315 74.2691 26.5123 73.6911 26.7835L74.4034 28.3018ZM76.1704 27.4389C76.721 27.1603 77.2761 26.9162 77.8322 26.7064L77.2403 25.1372C76.6271 25.3685 76.0168 25.637 75.4131 25.9426L76.1704 27.4389ZM77.8155 26.7125C78.1045 26.6104 78.3827 26.4309 78.581 26.1428C78.7779 25.8566 78.8468 25.535 78.8451 25.2331L77.1681 25.2423C77.1682 25.2647 77.1656 25.267 77.1688 25.2551C77.1724 25.2418 77.1812 25.2184 77.1994 25.192C77.2177 25.1655 77.238 25.1467 77.2534 25.1356C77.2677 25.1254 77.2717 25.126 77.257 25.1312L77.8155 26.7125ZM78.8451 25.2377C78.8451 24.8645 78.7356 24.5146 78.5276 24.2113L77.1445 25.1597C77.1614 25.1843 77.168 25.2038 77.168 25.2377H78.8451ZM78.6633 24.5483L78.6614 24.537L77.007 24.8114L77.0088 24.8227L78.6633 24.5483ZM3.45268 17.2581C3.34288 16.1261 3.28795 14.9865 3.28795 13.8392H1.61087C1.61087 15.0401 1.66837 16.2338 1.78343 17.42L3.45268 17.2581ZM3.28795 13.8392C3.28795 13.0584 3.31358 12.258 3.36502 11.4358L1.6912 11.3311C1.6377 12.1863 1.61087 13.0217 1.61087 13.8392H3.28795ZM3.36501 11.4359C3.41627 10.6184 3.50073 9.73066 3.61893 8.77214L1.95446 8.56689C1.83281 9.55335 1.74489 10.4749 1.69121 11.331L3.36501 11.4359ZM3.62524 8.66952V8.57528H1.94815V8.66952H3.62524ZM3.62524 8.57528C3.62524 8.53104 3.6377 8.40568 3.69344 8.16564L2.05983 7.78627C1.99565 8.06263 1.94815 8.33682 1.94815 8.57528H3.62524ZM3.69344 8.16564C3.74468 7.94502 3.8124 7.72233 3.89727 7.49741L2.3282 6.90529C2.2182 7.19678 2.12852 7.49049 2.05983 7.78627L3.69344 8.16564ZM3.89727 7.49741C3.97771 7.28425 4.06325 7.11577 4.1498 6.98582L2.75398 6.05615C2.58195 6.31444 2.44263 6.60205 2.3282 6.90529L3.89727 7.49741ZM4.15494 6.97802C4.19063 6.92311 4.1958 6.93011 4.16101 6.95768C4.12166 6.98887 4.00435 7.06552 3.8229 7.06552V5.38843C3.23525 5.38843 2.89259 5.84283 2.74885 6.06395L4.15494 6.97802ZM3.8229 7.06552C3.64464 7.06552 3.51832 6.99044 3.45851 6.94031C3.40857 6.89845 3.40359 6.87455 3.42755 6.91759L4.89283 6.10177C4.75905 5.86149 4.43123 5.38843 3.8229 5.38843V7.06552ZM3.42755 6.91759C3.46116 6.97795 3.53617 7.18138 3.61868 7.6258L5.26759 7.31969C5.18145 6.85569 5.06909 6.41834 4.89283 6.10177L3.42755 6.91759ZM3.61807 7.62251C3.69183 8.02886 3.75305 8.60144 3.79716 9.35373L5.47136 9.25557C5.42553 8.47373 5.35933 7.82505 5.26819 7.32298L3.61807 7.62251ZM3.79716 9.35373C3.84083 10.0987 3.86317 11.0365 3.86317 12.1712H5.54026C5.54026 11.0179 5.51763 10.0448 5.47136 9.25557L3.79716 9.35373ZM3.86317 12.1712C3.86317 13.7999 3.7247 15.2907 3.45072 16.6451L5.09451 16.9776C5.39392 15.4974 5.54026 13.8936 5.54026 12.1712H3.86317ZM3.45051 16.6461C3.17323 18.0259 2.79119 19.437 2.30507 20.878L3.89417 21.4141C4.40116 19.9112 4.80236 18.4313 5.09472 16.9765L3.45051 16.6461ZM3.9286 21.0198C3.72061 19.6544 3.56145 18.4009 3.44881 17.2569L1.7798 17.4212C1.89577 18.5991 2.0589 19.8823 2.27064 21.2723L3.9286 21.0198ZM2.6143 18.1776H2.61805V16.5005H2.6143V18.1776ZM12.4358 25.2163C12.5429 24.7189 12.5714 24.493 12.738 23.7469L11.1012 23.3814C10.953 24.045 10.8653 24.5428 10.7963 24.8633L12.4358 25.2163ZM12.6951 23.8831C12.7518 23.7454 12.8256 23.5355 12.8256 23.3059H11.1485C11.1485 23.2719 11.1515 23.2464 11.1537 23.2317C11.156 23.2166 11.1583 23.2076 11.1588 23.2057C11.1595 23.203 11.1564 23.2153 11.1441 23.2451L12.6951 23.8831ZM12.8256 23.3059C12.8256 22.8963 12.6587 22.511 12.3192 22.2398L11.2726 23.5502C11.2427 23.5263 11.2056 23.4853 11.1788 23.4277C11.1527 23.3714 11.1485 23.3256 11.1485 23.3059H12.8256ZM12.32 22.2404C12.0951 22.0604 11.8577 21.9794 11.6605 21.9405L11.3355 23.5858C11.3437 23.5874 11.3378 23.5869 11.3239 23.581C11.3087 23.5746 11.29 23.5642 11.2719 23.5497L12.32 22.2404ZM12.3329 22.8414C12.3479 22.6815 12.3458 22.6551 12.3573 22.5553L10.6911 22.3641C10.6801 22.4602 10.6668 22.645 10.6631 22.6848L12.3329 22.8414ZM12.3568 22.5592C12.4006 22.1931 12.4848 21.9019 12.5958 21.6693L11.0822 20.947C10.8785 21.374 10.7528 21.848 10.6916 22.3602L12.3568 22.5592ZM12.5958 21.6693C12.6959 21.4595 12.8276 21.3036 12.9891 21.185L11.9968 19.833C11.6037 20.1216 11.2969 20.4972 11.0822 20.947L12.5958 21.6693ZM12.9891 21.185C13.1147 21.0929 13.3257 21.0025 13.6743 20.9661L13.5003 19.2981C12.9457 19.356 12.4259 19.5181 11.9968 19.833L12.9891 21.185ZM13.6573 20.9677L13.9271 20.9451L13.7871 19.2739L13.5172 19.2965L13.6573 20.9677ZM13.8571 20.948C14.1403 20.948 14.3601 21.0072 14.5408 21.105L15.3395 19.6303C14.8868 19.3852 14.3871 19.271 13.8571 19.271V20.948ZM14.5356 21.1022C14.7717 21.2322 14.9765 21.3933 15.1515 21.5873L16.3965 20.4636C16.0918 20.1261 15.7382 19.85 15.3447 19.6332L14.5356 21.1022ZM15.1515 21.5873C15.338 21.7939 15.4985 22.03 15.6296 22.2983L17.1363 21.5619C16.9377 21.1554 16.6897 20.7885 16.3965 20.4636L15.1515 21.5873ZM15.6296 22.2983C15.7784 22.6028 15.8981 22.8979 15.9918 23.1873L17.5873 22.6706C17.4675 22.3005 17.3173 21.9321 17.1363 21.5619L15.6296 22.2983ZM16.6112 22.1096C15.7898 22.2885 15.0041 22.4991 14.2545 22.7419L14.7713 24.3373C15.4646 24.1128 16.1966 23.9163 16.968 23.7483L16.6112 22.1096ZM14.2526 22.7425C13.5017 22.9877 12.8366 23.2536 12.2632 23.543L13.0188 25.0402C13.4985 24.7981 14.0814 24.5627 14.7732 24.3367L14.2526 22.7425ZM12.2239 23.5642C11.7633 23.8283 11.3654 24.1167 11.036 24.4342L12.1998 25.6417C12.4101 25.439 12.6905 25.2298 13.0581 25.019L12.2239 23.5642ZM11.0232 24.4468L11.0213 24.4487L12.2108 25.631L12.2126 25.6291L11.0232 24.4468ZM16.2434 24.8325C16.2434 25.1671 16.1896 25.5612 16.069 26.016L17.6901 26.4458C17.8393 25.883 17.9204 25.3422 17.9204 24.8325H16.2434ZM16.069 26.016C15.9511 26.4608 15.7856 26.8735 15.5727 27.2534L17.0358 28.0732C17.3214 27.5635 17.5382 27.0188 17.6901 26.4458L16.069 26.016ZM15.5707 27.2571C15.3734 27.6134 15.1287 27.9047 14.8396 28.1402L15.8989 29.4404C16.3594 29.0653 16.7405 28.6065 17.0379 28.0695L15.5707 27.2571ZM14.8412 28.1389C14.6069 28.3288 14.3718 28.4097 14.1063 28.4097V30.0868C14.774 30.0868 15.3783 29.8624 15.8973 29.4417L14.8412 28.1389ZM14.1063 28.4097C13.9877 28.4097 13.87 28.3808 13.7447 28.3092L12.9126 29.7652C13.282 29.9763 13.6853 30.0868 14.1063 30.0868V28.4097ZM13.7447 28.3092C13.5691 28.2088 13.4143 28.0865 13.2796 27.9407L12.0474 29.0783C12.3025 29.3546 12.5935 29.5829 12.9126 29.7652L13.7447 28.3092ZM13.2796 27.9407C13.1382 27.7875 13.0275 27.6248 12.9458 27.454L11.433 28.1778C11.5912 28.5084 11.799 28.8093 12.0474 29.0783L13.2796 27.9407ZM12.9458 27.454C12.866 27.2873 12.8481 27.1757 12.8481 27.1111H11.171C11.171 27.4836 11.2729 27.8433 11.433 28.1778L12.9458 27.454ZM12.8481 27.1111C12.8481 27.0646 12.8495 27.033 12.8511 27.0136C12.8518 27.0042 12.8524 27 12.8524 27C12.8524 27.0001 12.8521 27.0018 12.8516 27.0049C12.851 27.0079 12.85 27.0128 12.8485 27.0194L11.2155 26.6374C11.1782 26.797 11.171 26.9685 11.171 27.1111H12.8481ZM12.8452 27.033C12.864 26.9584 12.9257 26.829 13.1373 26.6564L12.0772 25.3569C11.6742 25.6856 11.3499 26.1028 11.2188 26.6237L12.8452 27.033ZM13.1373 26.6564C13.3703 26.4664 13.6874 26.2768 14.1043 26.0949L13.4337 24.5577C12.9175 24.7829 12.4588 25.0456 12.0772 25.3569L13.1373 26.6564ZM14.1043 26.0949C14.5298 25.9092 15.0085 25.7412 15.5457 25.5942L15.1029 23.9766C14.4971 24.1424 13.9414 24.3362 13.4337 24.5577L14.1043 26.0949ZM15.5457 25.5942C16.1021 25.4419 16.6653 25.3044 17.2353 25.1835L16.8873 23.5429C16.2843 23.6708 15.6894 23.816 15.1029 23.9766L15.5457 25.5942ZM16.2374 24.5192C16.2431 24.5491 16.2452 24.5742 16.2452 24.5988H17.9223C17.9223 24.4651 17.9095 24.3356 17.8852 24.2072L16.2374 24.5192ZM16.2452 24.5988V24.8344H17.9223V24.5988H16.2452ZM17.6791 24.2438L17.6772 24.2419L16.4866 25.4231L16.4885 25.425L17.6791 24.2438ZM37.6816 24.397C37.2536 24.6422 36.7282 25.0067 36.1434 24.6159L35.2116 26.0103C36.8154 27.082 38.3773 25.9312 38.5152 25.8522L37.6816 24.397ZM36.1439 24.6162C35.7015 24.3202 35.3661 23.6804 35.2011 22.8179C35.0401 21.976 35.0815 21.1205 35.2035 20.6339L33.5768 20.2259C33.3878 20.9794 33.3533 22.084 33.5539 23.1329C33.7506 24.1612 34.2144 25.3429 35.2111 26.01L36.1439 24.6162ZM35.2034 20.6345C35.3998 19.8535 35.8473 19.0003 36.8313 18.4907L36.0601 17.0015C34.5182 17.7999 33.849 19.1442 33.577 20.2253L35.2034 20.6345ZM36.8305 18.4912C37.0649 18.3701 37.1907 18.3964 37.2803 18.434C37.4127 18.4897 37.5889 18.6326 37.7859 18.9127C38.1819 19.4756 38.4515 20.2855 38.5837 20.7749L40.2027 20.3375C40.0595 19.8073 39.7295 18.7607 39.1576 17.9478C38.8707 17.54 38.471 17.1152 37.9299 16.8879C37.346 16.6426 36.7007 16.6707 36.061 17.001L36.8305 18.4912ZM40.0166 19.9953C39.5662 19.4947 38.9122 19.1654 38.1696 19.1654V20.8425C38.4015 20.8425 38.6132 20.9429 38.7699 21.1171L40.0166 19.9953ZM38.1696 19.1654C36.7875 19.1654 35.6747 20.2918 35.6747 21.67H37.3517C37.3517 21.2088 37.7229 20.8425 38.1696 20.8425V19.1654ZM35.6747 21.67C35.6747 23.0483 36.7875 24.1746 38.1696 24.1746V22.4975C37.7229 22.4975 37.3517 22.1312 37.3517 21.67H35.6747ZM38.1696 24.1746C39.0877 24.1746 39.8751 23.6742 40.3047 22.9529L38.864 22.0946C38.7165 22.3421 38.4583 22.4975 38.1696 22.4975V24.1746ZM38.7509 22.4317C38.7374 22.5534 38.7229 22.6522 38.7085 22.7572L40.3702 22.9839C40.3821 22.8967 40.4013 22.7655 40.4178 22.6158L38.7509 22.4317ZM38.709 22.754C38.5892 23.6075 38.2538 24.0717 37.6822 24.3986L38.5147 25.8544C39.5845 25.2427 40.186 24.2972 40.3698 22.9871L38.709 22.754ZM38.937 25.1265V25.1246H37.2599V25.1265H38.937ZM47.3539 24.2671C47.0653 24.4326 46.723 24.6719 46.3073 24.6543L46.2365 26.3299C47.2487 26.3727 48.0756 25.7865 48.1881 25.722L47.3539 24.2671ZM46.304 24.6542C46.2153 24.6508 46.1117 24.6304 45.9926 24.5784L45.3221 26.1156C45.6264 26.2483 45.9351 26.3184 46.2398 26.3301L46.304 24.6542ZM46.2822 24.7879C46.0766 24.5581 45.8081 24.4821 45.5955 24.4821V26.1592C45.4278 26.1592 45.2043 26.0982 45.0324 25.9062L46.2822 24.7879ZM45.9652 24.568C45.897 24.5345 45.8552 24.5112 45.8226 24.4891L44.8812 25.877C45.0097 25.9642 45.1328 26.0276 45.2258 26.0733L45.9652 24.568ZM45.8183 24.4862C45.3759 24.1901 45.0405 23.5503 44.8756 22.6878C44.7145 21.8459 44.7559 20.9905 44.8779 20.5039L43.2513 20.0958C43.0623 20.8493 43.0277 21.9539 43.2283 23.0029C43.425 24.0312 43.8888 25.2129 44.8855 25.8799L45.8183 24.4862ZM44.8778 20.5044C45.0743 19.7235 45.5218 18.8702 46.5057 18.3607L45.7346 16.8714C44.1927 17.6699 43.5234 19.0141 43.2514 20.0953L44.8778 20.5044ZM46.5054 18.3609C46.7162 18.2519 46.8348 18.2658 46.9076 18.2873C47.0055 18.3161 47.1444 18.3996 47.3131 18.5945C47.6623 18.9981 47.9422 19.647 48.128 20.2169L49.7224 19.6968C49.5204 19.0774 49.1576 18.1631 48.5812 17.497C48.287 17.1572 47.8923 16.8293 47.3824 16.6788C46.8474 16.5209 46.2839 16.5873 45.735 16.8712L46.5054 18.3609ZM49.2318 19.1763C48.9474 19.0646 48.6319 18.9958 48.2938 18.9958V20.6729C48.4016 20.6729 48.5096 20.6945 48.6187 20.7373L49.2318 19.1763ZM48.2938 18.9958C46.8598 18.9958 45.7032 20.163 45.7032 21.5965H47.3803C47.3803 21.0812 47.794 20.6729 48.2938 20.6729V18.9958ZM45.7032 21.5965C45.7032 23.0294 46.8573 24.1972 48.2938 24.1972V22.5201C47.7927 22.5201 47.3803 22.1124 47.3803 21.5965H45.7032ZM48.2938 24.1972C48.7646 24.1972 49.1889 24.0643 49.5498 23.8626L48.7317 22.3986C48.5866 22.4797 48.4413 22.5201 48.2938 22.5201V24.1972ZM48.3242 22.9396C48.1736 23.5833 47.8673 23.9781 47.3562 24.2706L48.1895 25.7261C49.1138 25.1969 49.7031 24.4081 49.9572 23.3216L48.3242 22.9396ZM48.5239 24.6254L48.522 24.6217L47.0199 25.3675L47.0218 25.3713L48.5239 24.6254ZM56.9515 17.3033C56.8439 16.1939 56.8138 12.2811 56.8638 11.481L55.19 11.3763C55.1351 12.2536 55.165 16.2564 55.2822 17.4652L56.9515 17.3033ZM56.8638 11.4812C56.8895 11.0721 56.9448 10.3342 57.0407 9.58523C57.1402 8.80797 57.2721 8.11734 57.4225 7.74609L55.8681 7.11647C55.6268 7.71206 55.4758 8.60173 55.3772 9.37226C55.2749 10.1711 55.2169 10.9485 55.19 11.3762L56.8638 11.4812ZM57.4221 7.74704C57.4478 7.68377 57.4705 7.61992 57.489 7.56691C57.5107 7.5046 57.523 7.46759 57.542 7.41383C57.577 7.31507 57.6033 7.2511 57.6268 7.20676C57.6515 7.1604 57.6512 7.1782 57.6102 7.21103C57.5531 7.25675 57.4691 7.28979 57.3873 7.28979V5.61271C56.6798 5.61271 56.308 6.11451 56.1458 6.41994C56.0618 6.57796 56.0023 6.73768 55.9609 6.85465C55.9103 6.99783 55.8936 7.05359 55.8685 7.11552L57.4221 7.74704ZM57.3873 7.28979C57.1822 7.28979 57.0835 7.16838 57.0919 7.17881C57.1073 7.19794 57.1587 7.2789 57.2218 7.46598C57.3454 7.83242 57.4417 8.38134 57.5083 9.0311C57.6398 10.3146 57.6363 11.7836 57.6135 12.4636L59.2897 12.5196C59.3138 11.7974 59.3187 10.2463 59.1766 8.86014C59.1064 8.17508 58.9954 7.47682 58.8108 6.92978C58.7199 6.66012 58.5918 6.36776 58.3988 6.12777C58.1988 5.87907 57.8627 5.61271 57.3873 5.61271V7.28979ZM57.6135 12.4645C57.5621 14.0497 57.2461 15.2237 56.9512 16.6913L58.5954 17.0218C58.8701 15.6549 59.2325 14.2846 59.2897 12.5188L57.6135 12.4645ZM56.9512 16.6913C56.6739 18.0711 56.2919 19.4823 55.8058 20.9233L57.3949 21.4593C57.9019 19.9565 58.3031 18.4766 58.5954 17.0218L56.9512 16.6913ZM57.4293 21.065C57.2213 19.6996 57.0621 18.4461 56.9495 17.3021L55.2805 17.4664C55.3965 18.6443 55.5596 19.9276 55.7713 21.3176L57.4293 21.065ZM56.115 18.2228H56.1169V16.5457H56.115V18.2228Z" fill="black" mask="url(#path-2-inside-1_745_3428)"/>
        </g>
    <defs>
        <clipPath id="clip0_745_3428">
        <rect width="77" height="42" fill="white"/>
        </clipPath>
    </defs>
</svg>
